<svg xmlns="http://www.w3.org/2000/svg" width="2508" height="2508" viewBox="0 0 2508 2508"><rect x="0" y="0" width="2507" height="2507" rx="263" ry="263" fill="#152A47"/><g><path d="M0 0 C8.93 4.47 15.98 15.16 22 23 C22.8 24.02 23.59 25.03 24.41 26.08 C33.34 37.71 40.68 50.32 48 63 C48.46 63.79 48.91 64.57 49.38 65.38 C56.64 78 61.89 91.41 67 105 C67.31 105.8 67.61 106.6 67.93 107.42 C71.58 117.11 74.04 126.96 76.25 137.06 C76.5 138.19 76.74 139.31 77 140.47 C80.32 156.39 81.38 171.96 81.31 188.19 C81.31 188.64 81.31 188.64 81.31 190.92 C81.26 204.5 80.64 217.64 78 231 C77.83 231.94 77.66 232.88 77.48 233.85 C65.98 296.75 33.35 352.07 -8 400 C-8.64 400.74 -9.28 401.48 -9.93 402.24 C-11.61 404.17 -13.3 406.09 -15 408 C-15.66 408.75 -16.32 409.51 -17 410.29 C-21.76 415.66 -26.7 420.79 -31.84 425.8 C-34.8 428.71 -37.41 431.76 -40 435 C-41.22 436.14 -42.47 437.25 -43.75 438.31 C-48.06 441.99 -52.03 445.95 -56 450 C-57 451 -58 452 -59 453 C-39.95 442.29 -39.95 442.29 -31.77 436.07 C-29.05 434.04 -26.28 432.13 -23.46 430.24 C-8.52 420.16 5.51 408.93 19 397 C19.91 396.2 20.82 395.4 21.76 394.58 C28.28 388.74 34.51 382.62 40.72 376.45 C42.14 375.04 43.57 373.64 45 372.23 C51.1 366.13 56.62 359.75 62 353 C62.86 351.97 63.73 350.95 64.61 349.93 C92.4 317.53 111.72 280.16 124.21 239.53 C125.1 236.67 126.03 233.83 127 231 C128.32 231 129.64 231 131 231 C134.88 248.58 138.28 266.05 140 284 C140.09 284.97 140.19 285.93 140.29 286.93 C142.37 310.66 142.37 335.56 138 359 C137.8 360.07 137.6 361.13 137.4 362.23 C132.83 385.93 125.58 408.32 115 430 C114.83 430.35 114.83 430.35 113.98 432.12 C104.17 452.44 90.89 471.11 76 488 C75.52 488.55 75.03 489.1 74.54 489.67 C65.06 500.41 54.97 510.77 44 520 C43.55 520.4 43.55 520.4 41.26 522.41 C1.92 556.73 -46.13 580.39 -96 595 C-68.55 595.75 -41.44 590.94 -15 584 C-14.56 583.88 -14.56 583.88 -12.33 583.3 C42.77 568.6 94.94 536.15 130 491 C130.99 491.33 131.98 491.66 133 492 C134.5 543.16 105.88 600.59 71.62 637.17 C70.08 638.79 68.54 640.39 67 642 C66.48 642.55 65.96 643.09 65.43 643.65 C57.53 651.94 49.2 659.2 40 666 C39.37 666.47 38.74 666.95 38.1 667.43 C3.75 693.17 -36.1 708.02 -78 716 C-78.4 716.08 -78.4 716.08 -80.42 716.48 C-95.44 719.46 -110.77 720.59 -126 722 C-72.98 732.48 -13.38 735.11 36 709 C37.32 709.33 38.64 709.66 40 710 C38.33 715 35.48 719.1 32.56 723.44 C32.03 724.23 31.5 725.03 30.95 725.85 C26.34 732.64 21.43 739.11 16.24 745.47 C15.1 746.87 13.99 748.29 12.88 749.71 C-25.71 798.38 -79.03 828.77 -140 839 C-140.77 839.13 -141.54 839.27 -142.34 839.4 C-168.1 843.61 -196.36 842.17 -222 838 C-184.87 856.34 -149.33 863.65 -108 861 C-108 862.32 -108 863.64 -108 865 C-152.43 896.86 -199.62 918.85 -252.94 931.44 C-253.97 931.68 -255.01 931.93 -256.07 932.19 C-263.03 933.77 -269.88 934.58 -277 935 C-312.71 911.13 -312.71 911.13 -328.32 896.5 C-330.61 894.36 -332.94 892.29 -335.31 890.25 C-338.5 887.49 -341.47 884.56 -344.42 881.55 C-346 880 -346 880 -348.5 878.06 C-351.43 875.65 -353.73 872.94 -356.19 870.06 C-357.85 868.17 -359.57 866.43 -361.38 864.69 C-378.76 847.54 -392.27 825.79 -403 804 C-403.58 802.83 -404.15 801.66 -404.75 800.45 C-409.52 790.07 -412.2 779.05 -415 768 C-413 764 -413 764 -411.55 763.15 C-398.01 755.14 -385.74 746.65 -374.14 735.95 C-372.41 734.37 -370.65 732.89 -368.81 731.44 C-365.84 728.86 -363.37 726.13 -360.83 723.13 C-359.66 721.77 -358.46 720.43 -357.23 719.12 C-346.69 707.82 -337.53 694.47 -330 681 C-329.49 680.09 -328.98 679.18 -328.45 678.25 C-319.23 661.72 -312.14 645.26 -307 627 C-306.87 626.54 -306.87 626.54 -306.21 624.21 C-301.52 607.15 -299.94 589.53 -298 572 C-294.09 536.74 -284.86 508.35 -260 482 C-259.35 481.29 -258.7 480.57 -258.03 479.84 C-246.49 467.63 -231.95 458.5 -218.11 449.17 C-209.91 443.65 -201.88 437.96 -194 432 C-193.73 431.8 -193.73 431.8 -192.38 430.78 C-174.95 417.64 -158.03 403.74 -142.07 388.85 C-139.33 386.3 -136.55 383.8 -133.75 381.31 C-126.98 375.23 -120.65 368.86 -114.74 361.95 C-112.94 359.94 -111.06 358.07 -109.12 356.19 C-105.26 352.37 -101.87 348.27 -98.47 344.04 C-96.26 341.32 -94 338.68 -91.7 336.05 C-69.44 310.51 -49.92 280.72 -35.12 250.29 C-34.36 248.74 -33.6 247.18 -32.83 245.63 C-6.98 193.33 7.26 136.87 7.19 78.5 C7.19 77.57 7.19 76.63 7.18 75.67 C7.13 50.77 5.45 25.2 -1 1 C-0.67 0.67 -0.34 0.34 0 0 Z M-64 455 C-64.33 455.66 -64.66 456.32 -65 457 C-64.01 456.67 -63.02 456.34 -62 456 C-62.66 455.67 -63.32 455.34 -64 455 Z " fill="#F2EDE1" transform="translate(1758,190)"/><path d="M0 0 C0.33 0.16 0.33 0.16 2 1 C1.89 1.68 1.77 2.36 1.65 3.06 C0.32 11.01 -0.97 18.96 -2.23 26.92 C-2.45 28.31 -2.67 29.69 -2.9 31.08 C-5.4 46.61 -6.24 61.79 -6.25 77.5 C-6.25 78.45 -6.25 79.4 -6.25 80.38 C-6.2 131.14 5.13 182.65 26 229 C26.53 230.19 27.05 231.38 27.59 232.6 C43.59 268.14 64.81 300.56 89 331 C89.43 331.55 89.87 332.1 90.32 332.66 C95.43 339.11 100.85 345.2 106.44 351.22 C108.54 353.5 110.6 355.79 112.62 358.12 C113.17 358.75 113.71 359.37 114.27 360.01 C115.54 361.47 116.81 362.93 118.07 364.39 C122.54 369.47 127.19 374.07 132.27 378.52 C135.45 381.4 138.43 384.44 141.44 387.5 C146.13 392.26 150.97 396.62 156.21 400.77 C158.7 402.76 161.12 404.8 163.53 406.88 C171.75 413.95 180.33 420.51 189 427 C189.63 427.47 190.25 427.94 190.9 428.42 C203.6 437.9 216.45 447.4 229.94 455.75 C239.26 461.57 247.74 468.53 255.78 475.99 C257.33 477.4 258.94 478.74 260.58 480.04 C288.29 502.47 296.73 539.15 300.6 572.59 C307.52 631.86 326.13 682.47 368 726 C368.47 726.5 368.95 726.99 369.44 727.5 C376.39 734.74 383.63 741.42 392 747 C391.99 746.34 391.98 745.68 391.97 745.01 C391.23 691.24 409.41 651.11 439 607 C459.12 576.97 479.85 544.51 473.79 506.7 C469.85 488.19 460.84 472.8 445.1 461.91 C426.44 450.39 405.86 445.75 384.25 450.56 C377.27 452.27 371.14 455.07 364.86 458.51 C362.49 459.74 360.6 460.53 358 461 C355.25 450.01 360.34 436.17 365.88 426.62 C376.67 410.72 393.3 397.8 412.3 393.48 C414.25 393.19 414.25 393.19 417 393 C417.35 391.76 417.7 390.52 418.06 389.25 C423.38 373.55 434.36 361.95 448 353 C448.77 352.47 449.53 351.94 450.32 351.39 C469.82 338.6 494.32 336.64 517 337 C517.5 336.29 517.99 335.57 518.5 334.84 C522.61 329.06 526.68 323.7 532 319 C532.55 318.5 533.09 318 533.65 317.49 C549.05 304.65 570.11 301.73 589.42 302.01 C591.6 302.03 593.79 302.04 595.97 302.06 C599.36 302.09 602.74 302.12 606.13 302.17 C630.37 302.49 630.37 302.49 642 299 C643.32 299.33 644.64 299.66 646 300 C646.33 300.66 646.66 301.32 647 302 C638.81 325.91 625.05 343.16 602.05 354.45 C593.94 357.96 585.47 360.47 577 363 C591.59 369.55 604.99 372.18 620.94 372.06 C621.52 372.06 621.52 372.06 624.46 372.05 C627.3 372.04 630.15 372.02 633 372 C634.51 379.54 629.91 386.4 625.86 392.79 C614.91 408.86 600.16 418.09 582 424 C582.52 424.99 583.04 425.99 583.57 427.01 C601.65 462.01 603.94 501.57 597 540 C596.83 540.97 596.66 541.93 596.48 542.93 C592.99 561.66 586.64 579.39 580.34 597.31 C570.82 624.42 562.2 652.16 559.23 680.84 C559.02 682.84 558.74 684.82 558.45 686.81 C553.86 723.43 562.51 763.71 580 796 C580.2 796.37 580.2 796.37 581.21 798.25 C586.35 807.84 591.72 817.11 598 826 C598.63 826.9 599.27 827.79 599.92 828.72 C601.92 831.5 603.95 834.26 606 837 C606.39 837.52 606.78 838.04 607.18 838.58 C612.16 845.24 617.3 851.63 622.94 857.76 C624.73 859.7 626.47 861.68 628.19 863.69 C636.41 873.1 645.06 882.15 653.88 891 C654.17 891.3 654.17 891.3 655.67 892.81 C659.31 896.44 663.08 899.86 666.97 903.22 C671.09 906.83 675.03 910.63 679 914.39 C682.96 918.13 687 921.77 691.11 925.35 C693.87 927.76 696.56 930.25 699.25 932.75 C700.38 933.79 701.5 934.84 702.63 935.88 C702.91 936.14 702.91 936.14 704.33 937.45 C710.49 943.16 716.69 948.83 722.94 954.44 C731.47 962.11 739.91 969.82 747.96 978 C749.87 979.88 751.84 981.63 753.88 983.38 C761.2 989.67 767.93 996.63 774.19 1003.97 C776.37 1006.41 778.67 1008.7 781 1011 C784.57 1014.54 787.97 1018.14 791.24 1021.96 C793.2 1024.23 795.22 1026.42 797.25 1028.62 C801.8 1033.67 805.97 1038.95 810.12 1044.31 C812.49 1047.36 814.9 1050.37 817.33 1053.36 C834.72 1074.84 849.64 1097.6 863.51 1121.47 C865.01 1124.02 866.56 1126.55 868.1 1129.07 C870.85 1133.65 873.21 1138.34 875.44 1143.19 C875.82 1144.01 876.2 1144.83 876.6 1145.68 C877.37 1147.34 878.15 1149.01 878.92 1150.67 C879.88 1152.75 880.86 1154.82 881.85 1156.89 C908.65 1213.37 923.8 1273.53 926 1336 C926.67 1336.25 927.34 1336.49 928.04 1336.75 C931.65 1338.27 935.03 1340.13 938.44 1342.06 C939.15 1342.46 939.86 1342.86 940.59 1343.28 C946.2 1346.48 951.65 1349.89 957.06 1353.43 C960.05 1355.39 963.07 1357.31 966.1 1359.22 C982.47 1369.54 998.5 1380.19 1013.91 1391.91 C1017.59 1394.71 1021.33 1397.44 1025.07 1400.16 C1037.78 1409.43 1050.07 1419.1 1061.61 1429.79 C1063.79 1431.8 1066 1433.75 1068.25 1435.69 C1071.39 1438.42 1074.32 1441.3 1077.23 1444.27 C1079.01 1446.01 1080.85 1447.59 1082.75 1449.19 C1087.82 1453.56 1092.22 1458.55 1096.68 1463.53 C1097.86 1464.85 1099.07 1466.14 1100.28 1467.43 C1125.62 1494.66 1149.61 1532.08 1149.21 1570.37 C1147.9 1592.5 1138.26 1610.38 1123 1626 C1122.35 1626.71 1121.71 1627.42 1121.04 1628.14 C1069.57 1683.2 970.63 1688.15 900.62 1690.62 C895.75 1690.77 890.88 1690.89 886 1691 C885.5 1691.01 885.5 1691.01 882.99 1691.07 C791.6 1692.94 699.08 1677.91 568.17 1648.07 C564.8 1647.2 561.42 1646.35 558.04 1645.5 C532.86 1639.16 507.82 1632.28 483.12 1624.25 C479.78 1623.17 476.44 1622.08 473.1 1621 C471.09 1620.35 469.08 1619.7 467.07 1619.04 C457.22 1615.87 448.27 1613.65 437.91 1613.46 C413.98 1612.72 389.3 1605.28 366 1600 C365.32 1599.85 364.63 1599.69 363.92 1599.53 C359.79 1598.6 355.65 1597.65 351.52 1596.7 C349.63 1596.26 347.73 1595.83 345.83 1595.4 C339.42 1593.9 333.21 1592.2 327 1590 C349.17 1711.78 349.17 1711.78 393.55 1745.96 C402.73 1752.25 412.63 1754.65 423.43 1756.61 C423.79 1756.68 423.79 1756.68 425.65 1757.02 C427.43 1757.35 429.21 1757.67 431 1758 C431.08 1757.21 431.17 1756.42 431.26 1755.6 C434.13 1728.88 437.39 1702.2 440.7 1675.53 C442.13 1664 443.53 1652.47 444.94 1640.94 C445.15 1639.19 445.36 1637.43 445.58 1635.68 C446.05 1631.79 446.53 1627.89 447 1624 C451 1623 451 1623 460 1627 C460.33 1627.33 460.66 1627.66 461 1628 C460.38 1638.55 459.22 1648.95 457.86 1659.42 C457.64 1661.09 457.43 1662.75 457.22 1664.42 C456.66 1668.79 456.09 1673.17 455.53 1677.54 C454.53 1685.29 453.53 1693.04 452.54 1700.79 C452.44 1701.63 452.33 1702.48 452.22 1703.34 C450.63 1715.82 449.11 1728.3 447.68 1740.8 C447.59 1741.55 447.5 1742.3 447.41 1743.08 C447.17 1745.18 446.93 1747.28 446.69 1749.39 C446.56 1750.57 446.42 1751.76 446.28 1752.98 C446 1756 446 1756 446 1760 C465.5 1760.77 465.5 1760.77 475 1756 C475.46 1755.78 475.46 1755.78 477.79 1754.64 C484.09 1751.4 489.61 1747.59 495 1743 C495.89 1742.25 496.77 1741.49 497.69 1740.72 C504.21 1734.99 509.72 1728.88 515 1722 C515.36 1721.54 515.36 1721.54 517.17 1719.23 C529.73 1702.94 539.79 1685.13 549.35 1666.96 C551.13 1663.57 553 1660.26 555 1657 C559 1656 559 1656 567 1659 C566.45 1664.07 564.71 1668.1 562.38 1672.56 C562.01 1673.27 561.65 1673.97 561.28 1674.69 C560.2 1676.8 559.1 1678.9 558 1681 C557.43 1682.11 556.86 1683.22 556.27 1684.37 C549.53 1697.22 541.78 1709.46 533 1721 C532.25 1722.03 531.5 1723.06 530.73 1724.12 C525.17 1731.6 518.99 1738.32 512.44 1744.94 C511.66 1745.73 510.88 1746.52 510.08 1747.34 C504.79 1752.58 499.23 1756.93 493 1761 C522.06 1761.55 551.79 1748.46 577 1735 C578.12 1734.41 579.24 1733.82 580.4 1733.21 C596.11 1724.6 610.65 1713.92 624 1702 C624.87 1701.24 625.73 1700.49 626.62 1699.71 C633.02 1694.06 639.02 1688.07 645 1682 C646.33 1680.67 647.67 1679.33 649 1678 C653.71 1678.48 657.67 1678.97 662 1681 C654.99 1697.39 633.69 1712.28 619.73 1722.71 C617.96 1724.03 616.21 1725.38 614.46 1726.73 C605.48 1733.59 596 1739.27 586.15 1744.78 C584.24 1745.86 582.35 1746.97 580.48 1748.11 C579.47 1748.71 578.47 1749.31 577.44 1749.94 C576.61 1750.44 575.78 1750.95 574.93 1751.46 C570.76 1753.65 566.4 1755.31 562 1757 C596.2 1751.22 629.49 1741.64 661 1727 C662.58 1726.29 664.16 1725.58 665.75 1724.87 C708.64 1705.36 708.64 1705.36 722 1692 C729.47 1691.81 736.66 1692.55 744.06 1693.5 C744.64 1693.57 744.64 1693.57 747.55 1693.93 C750.37 1694.28 753.18 1694.64 756 1695 C756.33 1696.32 756.66 1697.64 757 1699 C747.41 1706.87 737.6 1714.27 727.4 1721.33 C724.83 1723.12 722.28 1724.91 719.72 1726.71 C701.39 1739.6 682.7 1751.91 663.66 1763.72 C656.71 1768.04 649.84 1772.51 643 1777 C642.46 1777.35 641.93 1777.7 641.37 1778.07 C625.94 1788.2 610.61 1798.41 595.89 1809.57 C594.16 1810.88 592.42 1812.18 590.68 1813.47 C578.57 1822.46 566.84 1831.82 555.47 1841.72 C554.25 1842.78 553.03 1843.84 551.8 1844.89 C536.82 1857.83 522.2 1871.38 510 1887 C509.37 1887.76 508.74 1888.52 508.1 1889.3 C474.86 1929.68 454.78 1979.36 454.81 2031.94 C454.81 2032.62 454.81 2033.3 454.81 2034 C454.83 2045.43 455.36 2056.68 457 2068 C457.17 2069.25 457.34 2070.5 457.52 2071.79 C463.25 2106.93 477.76 2153.89 501 2182 C500.67 2183.32 500.34 2184.64 500 2186 C488.87 2176.7 478.98 2166.39 470 2155 C469 2153.78 467.99 2152.57 466.98 2151.36 C446.16 2126.26 429.46 2098.68 416 2069 C415.54 2068 415.08 2067.01 414.61 2065.98 C388.29 2006.06 387.1 1936.97 410.24 1875.96 C414.55 1865.01 419.43 1854.36 425 1844 C425.32 1843.41 425.64 1842.82 425.96 1842.21 C435.58 1824.49 447.35 1808.38 460.51 1793.14 C463.9 1789.2 463.9 1789.2 465 1787 C464.39 1787.02 463.77 1787.04 463.14 1787.06 C454.82 1787.2 446.68 1786.34 438.44 1785.31 C437.72 1785.22 437 1785.13 436.25 1785.04 C362.15 1775.82 290.72 1747.4 232 1701 C230.84 1700.11 229.68 1699.21 228.52 1698.32 C221.69 1693.07 215.19 1687.6 208.91 1681.7 C206.73 1679.68 204.53 1677.72 202.27 1675.78 C197.33 1671.48 192.69 1666.88 188.06 1662.25 C187.62 1661.81 187.62 1661.81 185.38 1659.57 C180.2 1654.34 175.3 1649.1 170.79 1643.29 C168.98 1640.97 167.05 1638.8 165.06 1636.62 C147.01 1616.48 130.48 1592.39 118.93 1567.97 C117.43 1564.85 115.84 1561.8 114.18 1558.77 C109.74 1550.66 105.85 1542.39 102.25 1533.88 C101.96 1533.19 101.66 1532.5 101.36 1531.79 C96.43 1520.13 92.2 1508.29 88.31 1496.25 C88.06 1495.48 87.81 1494.71 87.55 1493.91 C84.59 1484.69 81.99 1475.49 80 1466 C86.09 1464.48 90.4 1468.41 95.81 1471.31 C96.93 1471.91 98.05 1472.5 99.21 1473.12 C100.28 1473.69 101.35 1474.27 102.46 1474.86 C102.95 1475.13 102.95 1475.13 105.46 1476.47 C110.03 1479.23 110.96 1480.89 113 1486 C135.86 1500.91 159.57 1515.83 185 1526 C184.01 1521.38 183.02 1516.76 182 1512 C187 1511 187 1511 196 1516 C198.73 1519.99 199.76 1523.59 200.69 1528.31 C200.94 1529.57 201.19 1530.82 201.45 1532.11 C201.54 1532.59 201.54 1532.59 202 1535 C203.14 1535.36 204.28 1535.72 205.45 1536.1 C209.92 1537.59 214.31 1539.24 218.71 1540.93 C248.76 1552.51 279.15 1562.76 310 1572 C310.33 1570.35 310.66 1568.7 311 1567 C315.56 1567.54 318.97 1568.79 323 1571 C325 1574 325 1574 325 1577 C325.97 1577.12 326.94 1577.24 327.93 1577.37 C332.38 1578 336.7 1579.06 341.05 1580.14 C341.48 1580.25 341.48 1580.25 343.66 1580.78 C346.4 1581.46 349.14 1582.13 351.88 1582.81 C355.46 1583.7 359.04 1584.58 362.62 1585.46 C363.49 1585.67 364.36 1585.89 365.25 1586.11 C373.49 1588.13 381.74 1590.08 390 1592 C389.41 1591.78 388.83 1591.57 388.23 1591.35 C374.88 1586.43 361.66 1581.28 348.51 1575.88 C342.74 1573.51 336.98 1571.2 331.12 1569.06 C319.23 1564.68 307.56 1559.68 295.86 1554.78 C294.04 1554.02 292.21 1553.25 290.39 1552.49 C279.06 1547.76 267.76 1543.01 256.68 1537.73 C252.24 1535.62 247.74 1533.63 243.25 1531.62 C233.43 1527.23 223.7 1522.65 214 1518 C213.54 1517.78 213.54 1517.78 211.2 1516.66 C210.24 1516.2 209.28 1515.74 208.29 1515.27 C207.32 1514.8 206.35 1514.34 205.34 1513.86 C203.37 1512.91 201.4 1511.97 199.43 1511.02 C195.03 1508.91 190.62 1506.81 186.18 1504.77 C178.91 1501.41 171.93 1497.9 165.05 1493.77 C161.62 1491.78 158.11 1490 154.56 1488.25 C141.37 1481.74 128.25 1475.06 115.6 1467.54 C109.88 1464.16 104.01 1461.05 98.13 1457.98 C69.78 1443.16 42.38 1426.11 15.85 1408.24 C14.01 1407.01 12.17 1405.79 10.32 1404.57 C-10.95 1390.52 -31.66 1375.62 -51.32 1359.38 C-53.59 1357.52 -55.89 1355.7 -58.19 1353.88 C-67.76 1346.22 -76.96 1338.22 -85.92 1329.86 C-89.49 1326.53 -93.13 1323.28 -96.78 1320.04 C-103.08 1314.25 -108.77 1307.88 -114.54 1301.58 C-115.77 1300.25 -117.01 1298.94 -118.25 1297.63 C-142.98 1271.27 -167.74 1234.27 -167.42 1196.82 C-166.64 1173.82 -154.64 1153.52 -138.27 1137.92 C-128.94 1129.38 -118.08 1122.97 -107 1117 C-106.11 1116.5 -105.22 1116 -104.3 1115.49 C-47.1 1084.97 24.54 1081.77 88 1081.81 C89.27 1081.81 90.53 1081.81 91.84 1081.81 C111.22 1081.82 130.48 1082.37 149.81 1083.62 C157.33 1084.1 164.85 1084.38 172.38 1084.62 C173.57 1084.66 174.76 1084.7 175.98 1084.75 C178.66 1084.83 181.33 1084.92 184 1085 C184.63 1084.36 185.26 1083.72 185.91 1083.06 C190.42 1078.5 194.96 1074.05 199.84 1069.89 C202.44 1067.62 204.93 1065.24 207.44 1062.88 C214.19 1056.6 221.49 1051.08 228.88 1045.58 C230.88 1044.09 232.87 1042.59 234.86 1041.08 C243.59 1034.52 252.64 1028.63 262 1023 C262.7 1022.58 263.4 1022.16 264.12 1021.72 C296.77 1002.09 331.31 987.37 368 977 C368.97 976.73 369.93 976.45 370.92 976.17 C389.03 971.15 407.49 968.08 426 965 C425.68 964.96 425.68 964.96 424.07 964.74 C391.93 960.47 359.84 956.17 328 950 C327.3 949.86 326.59 949.73 325.87 949.59 C268.29 938.37 212.53 922.43 160 896 C159.15 895.58 158.31 895.16 157.44 894.73 C140.68 886.39 123.92 876.59 110 864 C110 863.01 110 862.02 110 861 C111.11 861.07 112.23 861.14 113.38 861.22 C153.71 863.73 188.75 855.58 225 838 C224.3 838.09 223.61 838.18 222.89 838.28 C153.67 847.04 87.74 834.13 31.58 791.03 C24.34 785.37 17.54 779.44 11 773 C10.39 772.41 9.78 771.82 9.15 771.21 C1.23 763.53 -6.25 755.75 -13 747 C-13.75 746.07 -14.5 745.13 -15.27 744.17 C-23.16 734.22 -30.05 723.62 -37 713 C-36.67 711.68 -36.34 710.36 -36 709 C-31.35 710.5 -26.74 712.07 -22.19 713.83 C27.2 732.81 78.75 733.28 130 722 C129.12 721.93 128.24 721.86 127.34 721.79 C92.27 718.95 59.24 712.89 26 701 C25.27 700.74 24.55 700.49 23.8 700.22 C13.39 696.46 3.76 691.39 -5.94 686.11 C-7.61 685.21 -9.29 684.34 -10.98 683.48 C-25.56 675.99 -38.82 665.9 -51 655 C-51.9 654.21 -52.8 653.41 -53.73 652.6 C-61.74 645.5 -69.04 638.19 -75.73 629.82 C-77.17 628.03 -78.64 626.26 -80.15 624.52 C-111.55 587.96 -126.1 538.94 -132 492 C-131.01 491.34 -130.02 490.68 -129 490 C-128.49 490.64 -127.98 491.29 -127.45 491.95 C-121.29 499.61 -114.77 506.86 -108 514 C-107.29 514.75 -106.58 515.51 -105.84 516.29 C-92.12 530.43 -75.01 542.17 -58 552 C-57.36 552.38 -56.71 552.75 -56.05 553.14 C-10.26 579.87 44.65 596.78 98 595 C97.17 594.73 96.34 594.46 95.48 594.18 C88.84 592 82.21 589.81 75.58 587.58 C74.94 587.37 74.31 587.16 73.65 586.94 C66.64 584.58 59.77 581.98 53 579 C52.15 578.63 51.31 578.27 50.44 577.89 C35.06 571.19 20.4 563.6 6 555 C5.15 554.49 4.3 553.99 3.43 553.46 C-8.32 546.39 -19.29 538.56 -30 530 C-30.27 529.79 -30.27 529.79 -31.64 528.7 C-38.32 523.38 -44.71 517.78 -51 512 C-51.28 511.75 -51.28 511.75 -52.69 510.47 C-59.51 504.26 -66.1 498.1 -72 491 C-72.87 490.02 -73.73 489.04 -74.62 488.04 C-87.14 473.87 -97.68 458.71 -106.8 442.16 C-107.87 440.24 -108.96 438.35 -110.07 436.45 C-145.48 374.11 -144.84 300.01 -130 232 C-129.34 231.01 -128.68 230.02 -128 229 C-127.01 229.33 -126.02 229.66 -125 230 C-124.67 231.15 -124.34 232.31 -124 233.5 C-118.47 252.58 -112.48 271.68 -102.97 289.2 C-101.99 291.02 -101.05 292.86 -100.11 294.71 C-89.84 314.77 -76.61 333.88 -62 351 C-61.1 352.07 -60.2 353.15 -59.3 354.22 C-49.27 366.14 -38.9 377.9 -27.12 388.13 C-25.17 389.85 -23.36 391.63 -21.56 393.5 C-17.54 397.58 -13.11 401.1 -8.65 404.67 C-6.87 406.1 -5.12 407.55 -3.37 409.01 C17.16 425.99 39.24 440.24 62 454 C61.31 453.31 60.61 452.61 59.89 451.9 C57.91 449.91 55.93 447.91 53.95 445.91 C48.69 440.61 43.45 435.39 37.76 430.54 C32.82 426.23 28.46 421.44 24.2 416.48 C22.44 414.5 20.66 412.57 18.83 410.65 C11.59 403.03 4.83 395.27 -1.53 386.91 C-3.13 384.83 -4.77 382.77 -6.41 380.72 C-14.26 370.84 -21.36 360.72 -28 350 C-28.9 348.57 -29.8 347.14 -30.7 345.71 C-71.84 279.93 -90.62 205.55 -73 129 C-62.12 84.29 -38.28 43.36 -8.38 8.77 C-6.19 6.22 -4.08 3.63 -2 1 C-1.34 0.67 -0.68 0.34 0 0 Z M64 455 C64.33 455.66 64.66 456.32 65 457 C65.66 456.67 66.32 456.34 67 456 C66.01 455.67 65.02 455.34 64 455 Z M297 1032 C295.15 1033 293.29 1034 291.44 1035 C289.62 1036 287.81 1037 286 1038 C285.39 1038.33 284.79 1038.66 284.16 1039 C275.3 1043.81 266.97 1048.8 259 1055 C264.8 1067.78 280.37 1074.41 292 1081 C293.65 1081 295.3 1081 297 1081 C297.59 1080.4 298.19 1079.8 298.8 1079.18 C301.04 1076.92 303.29 1074.67 305.53 1072.41 C306.5 1071.44 307.46 1070.47 308.42 1069.5 C314.1 1063.77 319.82 1058.19 326 1053 C326.61 1052.49 327.22 1051.97 327.84 1051.44 C342.69 1038.98 358.4 1027.99 375 1018 C376.11 1017.32 377.23 1016.65 378.38 1015.95 C395.36 1005.94 413.3 998.17 432 992 C394.41 982.6 328.64 1013.89 297 1032 Z M454.12 1030 C437.21 1049.06 398 1094.09 398 1120 C429.53 1128.8 461.14 1135.84 493.38 1141.53 C493.8 1141.61 493.8 1141.61 495.93 1141.98 C501.76 1143 501.76 1143 504 1143 C505.26 1139.21 505.55 1135.45 505.95 1131.5 C506.13 1129.67 506.32 1127.85 506.51 1126.02 C506.61 1125.04 506.71 1124.07 506.81 1123.06 C508.87 1102.93 511.16 1082.84 513.56 1062.75 C513.86 1060.23 514.17 1057.7 514.47 1055.18 C514.91 1051.51 515.34 1047.85 515.78 1044.18 C516.93 1034.59 518.07 1025 519.18 1015.41 C519.35 1013.95 519.52 1012.49 519.69 1011.03 C519.92 1009.08 520.15 1007.12 520.37 1005.17 C520.49 1004.11 520.62 1003.05 520.74 1001.96 C521 998.96 521.05 996.01 521 993 C493.28 991.71 472.1 1011.01 454.12 1030 Z M429 1005 C428.37 1005.23 427.73 1005.46 427.08 1005.69 C409.18 1012.23 392.17 1020.97 376 1031 C375.4 1031.36 374.8 1031.73 374.19 1032.1 C359.09 1041.3 345.31 1052.39 332 1064 C331.16 1064.72 330.33 1065.45 329.47 1066.19 C321.98 1072.79 315.01 1079.9 308 1087 C311.76 1090.26 316.08 1091.89 320.62 1093.75 C321.47 1094.1 322.32 1094.45 323.2 1094.81 C325.79 1095.88 328.4 1096.94 331 1098 C331.36 1098.15 331.36 1098.15 333.2 1098.91 C343.19 1103.03 353.35 1106.53 363.62 1109.88 C364.82 1110.27 366.02 1110.66 367.26 1111.07 C373.2 1112.97 378.77 1114.52 385 1115 C388.39 1109.61 391.46 1104.16 394.25 1098.44 C408.59 1069.16 427.62 1041.65 450 1018 C450.89 1017.06 451.77 1016.12 452.69 1015.15 C459.29 1008.33 466.38 1002.61 474 997 C475.33 996 476.67 995 478 994 C461.75 993.59 444.17 999.54 429 1005 Z M534 995 C532.68 1004.59 531.5 1014.19 530.48 1023.82 C530.28 1025.78 530.07 1027.74 529.86 1029.7 C529.64 1031.76 529.42 1033.83 529.2 1035.89 C528.43 1043.13 527.66 1050.36 526.88 1057.6 C526.84 1057.97 526.84 1057.97 526.65 1059.82 C525.55 1070.04 524.42 1080.25 523.24 1090.46 C523.1 1091.66 522.97 1092.87 522.82 1094.11 C522.18 1099.72 521.53 1105.34 520.87 1110.96 C519.55 1122.3 518.5 1133.59 518 1145 C538.9 1149.41 560.13 1151.42 581.38 1153.25 C581.88 1153.29 581.88 1153.29 584.43 1153.52 C595.98 1154.53 607.4 1155.29 619 1155 C618.35 1146.22 616.21 1137.83 614.06 1129.31 C613.86 1128.52 613.67 1127.73 613.46 1126.92 C602.86 1084.93 587.79 1041.56 557 1010 C556.37 1009.31 555.75 1008.63 555.11 1007.92 C549.18 1001.55 542.22 997.66 534 995 Z M572 1007 C574.61 1011.01 577.23 1014.99 580.13 1018.8 C594.26 1037.53 604.09 1059.02 612 1081 C612.21 1081.58 612.21 1081.58 613.26 1084.51 C621.57 1107.91 627.94 1131.69 633 1156 C693.16 1156.54 693.16 1156.54 715 1153 C713.34 1146.86 710.19 1141.61 707.06 1136.12 C706.48 1135.1 705.9 1134.08 705.31 1133.03 C700.31 1124.35 694.91 1116.08 689 1108 C688.24 1106.96 687.48 1105.92 686.7 1104.85 C684.5 1101.87 682.26 1098.93 680 1096 C679.58 1095.45 679.16 1094.89 678.72 1094.32 C672.96 1086.78 666.98 1079.6 660.49 1072.68 C658.4 1070.43 656.37 1068.15 654.38 1065.81 C648.13 1058.63 641.24 1052.17 634 1046 C633.08 1045.19 632.16 1044.38 631.21 1043.54 C589.35 1007 589.35 1007 572 1007 Z M608 1011 C610.64 1013.76 613.27 1016 616.44 1018.12 C626.56 1025.1 635.98 1032.64 645 1041 C646.45 1042.31 647.91 1043.62 649.36 1044.94 C658.75 1053.46 667.78 1062.16 675.67 1072.11 C677.34 1074.18 679.01 1076.18 680.77 1078.17 C697.87 1097.58 711.59 1119.36 724 1142 C725.02 1143.83 726.04 1145.67 727.06 1147.5 C727.71 1148.67 728.35 1149.83 729 1151 C735.43 1151.17 741.21 1150.64 747.5 1149.31 C748.36 1149.13 749.22 1148.96 750.11 1148.77 C762.22 1146.19 774.19 1143.24 785 1137 C785.33 1136.34 785.33 1136.34 787 1133 C773.04 1115.41 757.34 1097.89 739.61 1084.05 C737.19 1082.15 734.85 1080.16 732.53 1078.13 C719.93 1067.2 706.14 1057.81 692 1049 C690.92 1048.31 689.85 1047.63 688.74 1046.92 C681.64 1042.44 674.38 1038.55 666.83 1034.9 C664.97 1033.99 663.13 1033.05 661.3 1032.1 C647.4 1024.96 633.1 1018.68 618.38 1013.44 C617.67 1013.19 616.97 1012.93 616.24 1012.68 C613.36 1011.68 611.07 1011 608 1011 Z M206 1098 C204.26 1099.86 202.62 1101.75 200.99 1103.7 C198.76 1106.27 196.43 1108.73 194.09 1111.19 C186.88 1118.78 180.26 1126.62 174 1135 C173.75 1135.33 173.75 1135.33 172.47 1137.03 C163.56 1148.9 155.59 1161.25 148 1174 C147.58 1174.7 147.17 1175.4 146.74 1176.12 C137.77 1191.22 130.34 1207.21 123.5 1223.38 C123.19 1224.12 122.87 1224.86 122.55 1225.62 C116.69 1239.75 116.69 1239.75 118 1245 C131.58 1258.5 166.41 1285 186 1285 C186.18 1284.29 186.36 1283.59 186.54 1282.86 C204.87 1211.7 239.43 1148.63 286 1092 C282.42 1089.01 278.75 1086.56 274.75 1084.19 C264.91 1078.22 256.98 1071.28 249 1063 C236.74 1063 214.65 1089.63 206 1098 Z M84.02 1091.9 C82.01 1092 80.01 1092.09 78 1092.19 C16.4 1095.17 -59.76 1103.11 -104.37 1150.52 C-114.45 1162.13 -121.83 1177.5 -123 1193 C-123.06 1193.65 -123.13 1194.3 -123.19 1194.97 C-124.74 1224.11 -106.83 1253.46 -89 1275 C-88.17 1276.02 -87.35 1277.03 -86.5 1278.08 C-71.63 1296.18 -54.99 1313.32 -36.64 1327.89 C-34.25 1329.8 -31.94 1331.77 -29.63 1333.77 C-21.27 1340.99 -12.43 1347.55 -3.55 1354.11 C-1.14 1355.9 1.27 1357.7 3.66 1359.51 C15.27 1368.21 27.24 1376.28 39.36 1384.25 C41.56 1385.71 43.74 1387.18 45.91 1388.67 C57.65 1396.73 69.99 1403.81 82.28 1410.99 C85.02 1412.6 87.77 1414.21 90.52 1415.82 C99.65 1421.18 108.81 1426.51 118.06 1431.67 C121.75 1433.73 125.42 1435.82 129.08 1437.93 C137.66 1442.89 146.22 1447.74 155.13 1452.07 C160.05 1454.48 164.8 1457.11 169.56 1459.81 C179.18 1465.24 189.11 1469.95 199.11 1474.64 C203.73 1476.81 208.33 1479 212.94 1481.19 C213.81 1481.6 214.69 1482.02 215.59 1482.45 C220.02 1484.55 224.41 1486.7 228.78 1488.93 C237.69 1493.49 246.81 1497.53 255.98 1501.52 C261.73 1504.04 267.38 1506.66 272.98 1509.49 C279.8 1512.94 286.73 1516.05 293.75 1519.06 C294.38 1519.34 295.02 1519.61 295.67 1519.89 C318.33 1529.65 341.18 1538.94 364.12 1548 C364.91 1548.31 365.69 1548.62 366.5 1548.94 C416.14 1568.54 466.77 1586.02 518 1601 C518.34 1601.1 518.34 1601.1 520.09 1601.61 C531.03 1604.82 542.01 1607.95 553 1611 C553.36 1611.1 553.36 1611.1 555.19 1611.61 C645.45 1636.73 741.26 1656.5 851.47 1659.17 C853.21 1659.17 854.95 1659.17 856.69 1659.18 C860.31 1659.18 863.93 1659.19 867.56 1659.19 C871.2 1659.19 874.84 1659.19 878.49 1659.21 C906.7 1659.31 934.94 1659.08 962.94 1655.19 C964.2 1655.02 965.46 1654.85 966.76 1654.67 C986.21 1651.95 1005.3 1648.02 1024 1642 C1024.89 1641.71 1025.79 1641.43 1026.71 1641.13 C1046.24 1634.72 1064.95 1626.01 1081 1613 C1081.53 1612.57 1082.06 1612.15 1082.6 1611.7 C1097.06 1599.79 1108.53 1582.89 1111 1564 C1113.9 1525.48 1094.85 1490.67 1070.33 1462.05 C1067.44 1458.8 1064.46 1455.66 1061.44 1452.53 C1059.83 1450.82 1058.3 1449.05 1056.77 1447.27 C1052.43 1442.27 1047.76 1437.61 1043.06 1432.94 C1042.21 1432.08 1041.35 1431.22 1040.47 1430.33 C1035.48 1425.35 1030.37 1420.57 1025 1416 C1023.91 1415.05 1022.81 1414.1 1021.72 1413.15 C1007.31 1400.7 992.56 1388.97 977 1378 C976.17 1377.42 975.35 1376.83 974.5 1376.23 C932.77 1346.72 932.77 1346.72 925 1345 C925 1345.41 925 1345.41 924.99 1347.49 C924.35 1421.81 906.74 1499 870 1564 C869.8 1564.35 869.8 1564.35 868.81 1566.12 C855.49 1589.68 840.26 1612.08 822.38 1632.41 C818.81 1636.52 815.42 1640.77 812 1645 C785.56 1643.56 785.56 1643.56 783 1641 C783.35 1640.61 783.71 1640.22 784.07 1639.81 C827 1591.59 827 1591.59 827 1580 C822.24 1581.52 817.54 1583.15 812.89 1584.98 C797.21 1591.14 781.31 1595.81 765 1600 C764.15 1600.22 763.31 1600.44 762.43 1600.67 C747.23 1604.59 731.62 1607.42 716 1609 C713.62 1611.2 711.97 1613.46 710.3 1616.23 C709.81 1617.03 709.33 1617.84 708.83 1618.66 C708.33 1619.5 707.83 1620.33 707.31 1621.19 C706.8 1622.03 706.29 1622.88 705.76 1623.75 C704.51 1625.83 703.25 1627.91 702 1630 C697 1631 697 1631 690 1629 C690.67 1625.09 692.54 1622.13 694.56 1618.75 C695.2 1617.67 695.84 1616.59 696.5 1615.48 C697 1614.66 697.49 1613.84 698 1613 C695 1612 695 1612 691.36 1612.28 C678.77 1613.22 666.17 1614.07 653.57 1614.84 C651.36 1614.98 649.14 1615.12 646.93 1615.27 C629.15 1616.37 613.76 1612.43 597 1607 C596.67 1606.34 596.34 1605.68 596 1605 C596.73 1604.98 597.46 1604.96 598.22 1604.94 C605.24 1604.74 612.27 1604.53 619.3 1604.32 C622.9 1604.21 626.51 1604.11 630.12 1604.01 C655.58 1603.29 680.82 1602.01 706 1598 C739.58 1541.87 765.11 1465.31 764 1399 C763.4 1399.03 762.8 1399.05 762.18 1399.08 C761.75 1399.09 761.75 1399.09 759.59 1399.18 C758.62 1399.22 757.64 1399.26 756.64 1399.31 C747.59 1399.68 747.59 1399.68 744.13 1399.83 C741 1399.96 737.87 1400.1 734.73 1400.24 C720.76 1400.86 706.79 1401.26 692.81 1401.5 C689.44 1401.56 686.06 1401.63 682.69 1401.69 C668.46 1401.96 654.23 1402.06 640 1402 C639.89 1402.72 639.78 1403.43 639.67 1404.17 C612.52 1584.48 612.52 1584.48 592 1605 C588.7 1604.67 585.4 1604.34 582 1604 C581 1599 581 1599 581.54 1597.43 C602.46 1536.73 626 1465.88 626 1401 C625.45 1400.96 624.9 1400.92 624.34 1400.88 C579.68 1397.7 535.32 1393.31 491 1387 C489.07 1392.08 488.35 1396.95 487.74 1402.31 C487.63 1403.24 487.52 1404.17 487.4 1405.13 C487.03 1408.23 486.67 1411.33 486.31 1414.44 C486.05 1416.65 485.79 1418.86 485.53 1421.07 C483.18 1441.06 480.97 1461.06 478.77 1481.06 C476.97 1497.36 475.14 1513.66 473.19 1529.94 C473.09 1530.77 472.99 1531.6 472.89 1532.45 C472.35 1536.92 471.81 1541.4 471.26 1545.87 C470.99 1548.1 470.72 1550.33 470.46 1552.56 C470.28 1554.02 470.1 1555.48 469.93 1556.94 C469.77 1558.23 469.62 1559.52 469.46 1560.84 C469 1564 469 1564 468 1567 C466.54 1566.69 465.08 1566.38 463.62 1566.06 C463.22 1565.98 463.22 1565.98 461.16 1565.54 C459 1565 459 1565 457 1564 C456.84 1556.76 457.45 1549.78 458.29 1542.6 C458.42 1541.39 458.56 1540.19 458.7 1538.94 C459.07 1535.67 459.45 1532.39 459.83 1529.11 C460.14 1526.35 460.46 1523.59 460.77 1520.83 C463.25 1499.1 465.86 1477.39 468.5 1455.69 C470.24 1441.34 471.96 1427 473.61 1412.64 C473.82 1410.74 474.04 1408.84 474.26 1406.93 C474.56 1404.35 474.86 1401.76 475.15 1399.17 C475.24 1398.42 475.33 1397.68 475.42 1396.91 C475.86 1392.92 476.09 1389.02 476 1385 C473.42 1384.48 470.83 1383.96 468.25 1383.44 C467.37 1383.26 466.49 1383.08 465.59 1382.9 C459.8 1381.74 454 1380.62 448.2 1379.53 C408.68 1372.07 369.77 1362.65 331 1352 C330.01 1352.33 329.02 1352.66 328 1353 C324.46 1379.95 321.63 1406.86 320 1434 C319.96 1434.59 319.96 1434.59 319.78 1437.57 C318.4 1461.67 318.9 1485.88 319 1510 C314.44 1509.34 311.05 1508.22 307 1506 C306.17 1501.66 305.87 1497.55 305.87 1493.14 C305.87 1492.81 305.87 1492.81 305.86 1491.15 C305.86 1489 305.87 1486.84 305.88 1484.69 C305.88 1484.31 305.88 1484.31 305.88 1482.41 C305.9 1476.94 305.94 1471.47 306 1466 C306.01 1465.31 306.01 1464.63 306.02 1463.92 C306.34 1430.39 309.26 1396.82 313.78 1363.6 C313.94 1362.42 314.1 1361.25 314.27 1360.03 C314.41 1359.03 314.55 1358.02 314.7 1356.99 C315.04 1353.64 315.05 1350.36 315 1347 C314.01 1346.7 313.01 1346.41 311.99 1346.1 C272.73 1334.38 234.41 1320.78 197 1304 C196.34 1304 195.68 1304 195 1304 C190.3 1321.73 187.78 1339.9 185.81 1358.12 C185.74 1358.78 185.67 1359.44 185.6 1360.12 C184.27 1373.44 183.83 1386.78 183.87 1400.16 C183.87 1402.5 183.87 1404.84 183.86 1407.18 C183.86 1415.57 184.07 1423.91 184.65 1432.28 C185.05 1438.19 185.1 1444.08 185 1450 C180.22 1448.36 176.21 1445.73 172 1443 C168.79 1398.92 171.88 1355.5 179.91 1312.1 C180.77 1307.41 181.48 1302.74 182 1298 C181.07 1297.54 180.13 1297.08 179.17 1296.6 C174.77 1294.42 170.38 1292.21 166 1290 C165.61 1289.8 165.61 1289.8 163.65 1288.82 C146.47 1280.12 127.37 1270.19 114 1256 C113.34 1256 112.68 1256 112 1256 C104.25 1280.91 98.44 1306 96 1332 C95.9 1333.07 95.79 1334.14 95.69 1335.25 C93.73 1356.5 93.78 1377.69 94 1399 C90.65 1397.74 87.65 1396.31 84.61 1394.43 C83.82 1393.95 83.03 1393.46 82.21 1392.96 C81.4 1392.46 80.59 1391.96 79.75 1391.44 C78.92 1390.93 78.09 1390.42 77.24 1389.9 C71.15 1386.15 71.15 1386.15 70 1385 C68.81 1316.95 81.71 1248.84 113 1188 C113.52 1186.93 114.04 1185.87 114.57 1184.77 C121.94 1169.6 130.28 1154.78 140 1141 C140.38 1140.46 140.76 1139.92 141.15 1139.36 C151.94 1123.93 163.47 1109.06 176 1095 C176 1094.67 176 1094.34 176 1094 C169.85 1093.15 163.75 1092.71 157.55 1092.43 C156.55 1092.38 155.55 1092.34 154.51 1092.29 C151.26 1092.15 148 1092.01 144.75 1091.88 C143.63 1091.83 142.52 1091.78 141.37 1091.74 C122.2 1090.97 103.18 1090.91 84.02 1091.9 Z M298 1098 C292.43 1103.26 287.68 1108.95 283 1115 C282.52 1115.62 282.03 1116.23 281.54 1116.87 C268.78 1133.18 257.73 1150.3 247 1168 C246.8 1168.33 246.8 1168.33 245.79 1170 C240.2 1179.28 235.58 1188.93 231.04 1198.76 C230.12 1200.74 229.18 1202.71 228.23 1204.67 C220.13 1221.49 213.54 1238.93 207.62 1256.62 C207.22 1257.83 206.82 1259.04 206.4 1260.28 C198.63 1283.91 198.63 1283.91 199 1291 C203.54 1293.94 208.35 1296.01 213.31 1298.12 C214.24 1298.52 215.17 1298.91 216.12 1299.32 C226.96 1303.89 237.94 1308 249 1312 C249.63 1312.23 250.26 1312.45 250.9 1312.69 C267.31 1318.62 283.78 1324.35 300.38 1329.75 C301.04 1329.97 301.71 1330.19 302.39 1330.41 C304.27 1331.03 306.15 1331.63 308.02 1332.23 C309.08 1332.58 310.15 1332.92 311.24 1333.27 C314 1334 314 1334 318 1334 C318.2 1332.93 318.39 1331.86 318.59 1330.76 C328 1279.5 339.41 1228.81 358 1180 C358.82 1177.8 359.64 1175.6 360.45 1173.41 C366.09 1158.36 372.38 1143.64 379 1129 C378.67 1128.34 378.34 1127.68 378 1127 C377.04 1126.68 376.07 1126.37 375.08 1126.04 C342.69 1115.4 342.69 1115.4 328.44 1110.06 C327.53 1109.72 326.61 1109.38 325.68 1109.03 C320.19 1106.94 314.86 1104.62 309.55 1102.13 C305.78 1100.46 301.93 1099.23 298 1098 Z M392 1132 C384.87 1145.17 379.45 1159.07 374 1173 C373.55 1174.16 373.09 1175.32 372.62 1176.52 C356.17 1218.98 344.68 1263.23 335.94 1307.88 C335.74 1308.87 335.55 1309.86 335.35 1310.88 C334.8 1313.7 334.25 1316.54 333.71 1319.37 C333.55 1320.19 333.4 1321.02 333.23 1321.87 C332.17 1327.56 331.49 1333.24 331 1339 C371.54 1350.73 412.64 1360.34 454.12 1368.06 C454.93 1368.21 455.74 1368.37 456.58 1368.52 C458.87 1368.95 461.16 1369.37 463.45 1369.79 C464.74 1370.02 466.03 1370.26 467.37 1370.5 C470.96 1370.99 474.38 1371.09 478 1371 C480.32 1353.94 482.28 1336.85 484.15 1319.74 C484.84 1313.39 485.55 1307.05 486.25 1300.71 C486.33 1300.01 486.4 1299.32 486.48 1298.6 C487.73 1287.35 489.02 1276.11 490.38 1264.88 C490.56 1263.32 490.75 1261.77 490.93 1260.22 C491.24 1257.67 491.55 1255.12 491.85 1252.57 C493.54 1238.54 495.21 1224.5 496.87 1210.47 C497.39 1206.07 497.91 1201.66 498.44 1197.26 C498.94 1193.08 499.44 1188.89 499.93 1184.71 C500.11 1183.15 500.3 1181.6 500.49 1180.04 C501.46 1172 502.23 1164.11 502 1156 C500.92 1155.79 499.84 1155.59 498.73 1155.38 C469.37 1149.77 440.21 1143.72 411.25 1136.31 C404.87 1134.68 398.48 1133.21 392 1132 Z M792.26 1146.07 C777.88 1154.42 762.22 1158.86 746 1162 C744.9 1162.23 743.79 1162.45 742.65 1162.68 C740.44 1163.14 738.22 1163.57 736 1164 C737.38 1168.31 738.97 1172.47 740.72 1176.64 C741.26 1177.93 741.8 1179.23 742.34 1180.53 C742.62 1181.21 742.9 1181.89 743.19 1182.58 C757 1215.98 767.27 1250.28 773 1286 C773.12 1286.72 773.24 1287.45 773.36 1288.2 C775.37 1300.6 776.8 1312.96 777.69 1325.5 C777.72 1325.93 777.72 1325.93 777.88 1328.11 C779.21 1346.42 779.33 1364.66 779 1383 C786.69 1383.32 794.11 1382.14 801.69 1380.94 C802.39 1380.83 803.08 1380.72 803.8 1380.6 C829.27 1376.56 854.96 1370.96 878 1359 C878.14 1351.59 877.81 1344.41 876.88 1337.06 C876.75 1336.04 876.62 1335.02 876.48 1333.97 C874.75 1321.15 871.96 1308.57 869 1296 C868.76 1294.97 868.52 1293.95 868.27 1292.89 C860.07 1258.61 846.57 1226.39 829.46 1195.66 C828.52 1193.94 827.59 1192.22 826.69 1190.48 C822.03 1181.59 816.41 1173.37 810.81 1165.06 C809.8 1163.56 808.8 1162.05 807.79 1160.54 C806.83 1159.1 805.86 1157.66 804.89 1156.22 C804.45 1155.56 804 1154.89 803.54 1154.2 C801.43 1151.07 799.3 1147.99 797 1145 C794 1145 794 1145 792.26 1146.07 Z M516 1159 C514.32 1171.29 512.79 1183.6 511.44 1195.94 C511.01 1199.88 510.57 1203.82 510.14 1207.76 C510.05 1208.59 509.95 1209.42 509.86 1210.28 C508.79 1219.91 507.7 1229.53 506.6 1239.15 C506.39 1240.97 506.18 1242.79 505.98 1244.6 C505.55 1248.3 505.13 1252 504.71 1255.71 C498.34 1311.58 498.34 1311.58 495.45 1338.62 C495.36 1339.42 495.27 1340.22 495.19 1341.05 C495.02 1342.56 494.86 1344.07 494.7 1345.58 C494.3 1349.3 493.88 1353.02 493.43 1356.73 C493.34 1357.51 493.25 1358.28 493.15 1359.08 C492.97 1360.54 492.79 1362 492.61 1363.46 C492.18 1367 491.9 1370.44 492 1374 C505.31 1376.53 518.67 1378.34 532.12 1379.94 C533.2 1380.07 534.27 1380.19 535.38 1380.33 C551.66 1382.27 567.97 1383.93 584.31 1385.31 C585.26 1385.39 586.21 1385.47 587.18 1385.56 C600.44 1386.68 613.7 1387.45 627 1388 C629.58 1385.42 628.9 1377.03 629.23 1373.35 C629.36 1371.81 629.5 1370.27 629.64 1368.73 C629.85 1366.49 630.05 1364.24 630.25 1362 C630.31 1361.34 630.37 1360.68 630.43 1360 C631.62 1346.53 632.16 1333.16 632.17 1319.65 C632.17 1318.02 632.17 1316.39 632.18 1314.75 C632.18 1311.35 632.19 1307.95 632.19 1304.54 C632.19 1301.12 632.19 1297.7 632.21 1294.28 C632.32 1266.36 631.23 1238.77 628.06 1211 C627.89 1209.44 627.72 1207.87 627.54 1206.31 C626.55 1197.47 625.5 1188.63 624.31 1179.81 C624.19 1178.92 624.07 1178.03 623.95 1177.12 C623.13 1171.26 623.13 1171.26 622 1169 C617.58 1167.96 613.17 1167.68 608.65 1167.42 C606.94 1167.31 605.22 1167.21 603.5 1167.1 C602.59 1167.04 601.69 1166.99 600.75 1166.93 C583.68 1165.85 566.69 1164.35 549.69 1162.38 C548.74 1162.26 547.79 1162.15 546.81 1162.04 C544.1 1161.73 541.4 1161.41 538.7 1161.09 C537.9 1160.99 537.11 1160.9 536.29 1160.8 C533.09 1160.41 529.91 1159.98 526.73 1159.44 C524.3 1159.05 522.08 1158.9 519.62 1158.94 C519.03 1158.95 519.03 1158.95 516 1159 Z M705.38 1166.66 C682.3 1168.55 659.14 1168.66 636 1169 C636.09 1169.71 636.17 1170.42 636.26 1171.15 C636.76 1175.31 637.26 1179.48 637.75 1183.64 C638.42 1189.21 639.09 1194.78 639.8 1200.35 C641.1 1210.76 642.27 1221.17 643.12 1231.62 C643.16 1232.08 643.16 1232.08 643.35 1234.36 C644.93 1254.77 645.19 1275.2 645.19 1295.66 C645.19 1298.54 645.19 1301.42 645.21 1304.3 C645.31 1325.65 644.68 1346.85 642.71 1368.12 C642.07 1375.1 641.89 1381.99 642 1389 C711.47 1389.59 711.47 1389.59 740.62 1387.56 C741.11 1387.53 741.11 1387.53 743.59 1387.36 C759.67 1386.22 759.67 1386.22 765 1385 C774.04 1311.61 753.16 1232.3 723 1166 C717.08 1165.91 711.28 1166.17 705.38 1166.66 Z M874.71 1373.76 C869.52 1376.35 864.15 1378.13 858.62 1379.88 C857.54 1380.22 856.45 1380.57 855.33 1380.92 C832.05 1388.13 807.94 1392.71 783.77 1395.61 C781 1396 781 1396 778 1397 C777.95 1397.7 777.9 1398.41 777.85 1399.13 C773.21 1462.04 757.53 1526.95 728 1583 C727 1585 725.99 1587 725 1589 C724.33 1590.33 723.67 1591.67 723 1593 C723.33 1593.99 723.66 1594.98 724 1596 C763.64 1589.62 800.58 1579.02 837 1562 C857.71 1528.2 868.67 1485.37 875.25 1446.62 C875.4 1445.74 875.55 1444.85 875.71 1443.93 C876.18 1440.96 876.6 1437.98 877 1435 C877.09 1434.34 877.18 1433.69 877.27 1433.01 C879.02 1419.59 879.24 1406.34 879.12 1392.81 C879.11 1390.78 879.11 1388.75 879.1 1386.71 C879.08 1381.81 879.04 1376.9 879 1372 C878 1372 878 1372 874.71 1373.76 Z M119 1504 C120.37 1511.21 122.64 1517.63 125.5 1524.38 C125.94 1525.43 126.38 1526.48 126.84 1527.56 C130.68 1536.54 135.02 1545.18 139.75 1553.73 C141.02 1556.04 142.28 1558.36 143.54 1560.68 C151.26 1574.88 159.86 1588.13 169.55 1601.06 C171.03 1603.03 172.49 1605.02 173.95 1607.01 C182.55 1618.7 191.58 1629.88 202.01 1640.01 C203.83 1641.83 205.48 1643.71 207.12 1645.69 C215.89 1655.88 226.5 1664.67 237 1673 C238.14 1673.93 239.28 1674.86 240.41 1675.79 C253.65 1686.6 267.42 1696.32 282.19 1704.93 C285.3 1706.76 288.37 1708.66 291.44 1710.56 C292.51 1711.22 293.58 1711.89 294.68 1712.57 C295.45 1713.04 296.21 1713.51 297 1714 C297.66 1713.67 298.32 1713.34 299 1713 C298.64 1712.71 298.64 1712.71 296.79 1711.23 C289.71 1705.44 283.09 1699.28 276.62 1692.81 C275.88 1692.07 275.13 1691.32 274.36 1690.55 C260.13 1676.18 247.81 1660.07 237 1643 C236.57 1642.33 236.14 1641.66 235.7 1640.97 C219.29 1615.25 206.56 1587.78 196.23 1559.11 C190.46 1543.11 184.56 1539.64 169.59 1532.34 C161.32 1528.29 153.24 1523.9 145.19 1519.44 C144.05 1518.81 142.92 1518.19 141.75 1517.54 C135.41 1514.01 129.22 1510.32 123.14 1506.37 C121 1505 121 1505 119 1504 Z M207 1550 C208.39 1557.28 210.7 1563.84 213.5 1570.69 C213.94 1571.78 214.39 1572.87 214.85 1574 C227.92 1605.9 243.96 1636.29 266 1663 C266.48 1663.59 266.97 1664.18 267.47 1664.79 C295.86 1699.2 329.54 1726.86 371 1744 C371.66 1743.67 372.32 1743.34 373 1743 C372.47 1742.45 371.93 1741.9 371.38 1741.34 C337.42 1705.21 324.48 1651.2 316 1603.77 C315.89 1603.12 315.89 1603.12 315.3 1599.84 C315.09 1598.69 314.89 1597.54 314.68 1596.35 C313.96 1592.82 313.03 1589.45 312 1586 C307 1584.04 302.02 1582.39 296.85 1580.96 C268.48 1573.1 240.59 1563.09 213.37 1551.9 C211.26 1551.1 209.21 1550.49 207 1550 Z " fill="#F2EDE1" transform="translate(742,190)"/><path d="M0 0 C0.99 0.33 1.98 0.66 3 1 C1.29 4.8 -1.07 8.08 -3.5 11.44 C-3.95 12.06 -4.39 12.67 -4.85 13.31 C-13.26 24.94 -22.25 36.04 -31.41 47.08 C-33.52 49.62 -35.6 52.19 -37.69 54.75 C-43.17 61.46 -48.8 68.06 -54.42 74.67 C-60.69 82.05 -66.89 89.48 -73 97 C-74.5 98.83 -76 100.67 -77.5 102.5 C-77.87 102.96 -77.87 102.96 -79.76 105.27 C-81.22 107.05 -82.68 108.83 -84.14 110.61 C-86.44 113.4 -88.72 116.2 -91 119 C-91.46 119.56 -91.92 120.12 -92.39 120.7 C-99.89 129.93 -107.11 139.31 -114 149 C-114.23 149.32 -114.23 149.32 -115.37 150.92 C-122.31 160.72 -128.69 170.81 -134.86 181.11 C-135.77 182.63 -136.72 184.13 -137.67 185.62 C-158.48 218.42 -170.07 258.33 -171 297 C-171.02 297.55 -171.02 297.55 -171.12 300.34 C-171.51 319.36 -168.8 338.41 -165 357 C-166.32 357 -167.64 357 -169 357 C-181.04 339.76 -190.23 320.88 -197 301 C-197.37 299.92 -197.74 298.84 -198.12 297.73 C-202.97 282.18 -205.54 265.27 -206 249 C-206.04 247.84 -206.08 246.68 -206.12 245.49 C-206.89 202.61 -191.72 160.39 -165 127 C-164.69 126.61 -164.69 126.61 -163.13 124.62 C-157.27 117.29 -150.96 110.6 -144.31 104 C-143.78 103.47 -143.25 102.95 -142.71 102.4 C-135.43 95.16 -128.07 88.28 -119.73 82.26 C-117.75 80.82 -115.81 79.32 -113.87 77.82 C-99.89 67 -85.54 56.91 -70.75 47.22 C-68.33 45.64 -65.91 44.05 -63.49 42.45 C-55.42 37.15 -47.31 31.91 -39.13 26.77 C-31.52 21.99 -24.04 17.08 -16.62 12 C-16.09 11.64 -16.09 11.64 -13.4 9.81 C-8.8 6.67 -4.31 3.52 0 0 Z " fill="#F2EDE1" transform="translate(1454,1973)"/></g><g><path d="M0 0 C18.5 16.82 28.54 44.42 30 69 C30.53 98.71 21.27 121.68 0.79 143.22 C-3.21 147.21 -7.47 150.64 -12 154 C-34.29 170.66 -56.98 187.62 -62 217 C-62.33 220.98 -62.38 224.94 -62.38 228.94 C-62.38 230.03 -62.38 231.13 -62.38 232.26 C-62.24 242.73 -60.3 252.1 -57 262 C-57.99 262.33 -58.98 262.66 -60 263 C-79.87 250.67 -94.32 231.4 -99.92 208.61 C-104.82 184.84 -99.77 161.19 -87.02 140.84 C-77.81 127.77 -66.18 115.87 -53.58 106.07 C-48.48 101.98 -43.73 97.5 -39 93 C-38.41 92.44 -37.82 91.88 -37.21 91.3 C-29.99 84.38 -23.21 77.61 -18 69 C-17.35 67.94 -16.69 66.89 -16.02 65.8 C-5.98 49.19 -1.86 33.75 -1.38 14.31 C-1.34 13.03 -1.3 11.74 -1.26 10.42 C-1.16 7.28 -1.08 4.14 -1 1 C-0.67 0.67 -0.34 0.34 0 0 Z " fill="#E8843C" transform="translate(1282,239)"/><path d="M0 0 C0.49 0.33 0.49 0.33 3 2 C6.38 28.56 3.54 53.22 -13 75 C-25.36 89.43 -40.98 97.44 -59.17 102.08 C-73.62 105.79 -87.84 110.71 -99 121 C-99.61 121.53 -100.22 122.06 -100.84 122.61 C-109.26 130.38 -114 140.44 -118 151 C-119.32 151 -120.64 151 -122 151 C-122.65 149.29 -123.3 147.59 -123.94 145.88 C-124.12 145.4 -124.12 145.4 -125.03 142.99 C-129.31 129.82 -128.35 113.63 -123 101 C-122.63 100.11 -122.25 99.22 -121.87 98.3 C-119.05 92.2 -115.33 87.12 -111 82 C-110.68 81.61 -110.68 81.61 -109.05 79.65 C-97.61 66.23 -82.16 60.06 -66.05 53.8 C-47.16 46.43 -31.33 38.58 -17 24 C-16.22 23.21 -15.43 22.43 -14.62 21.62 C-10.25 16.99 -7.19 12.16 -4.32 6.48 C-3.06 4.12 -1.66 2.09 0 0 Z " fill="#E8843C" transform="translate(1367,352)"/></g></svg>
