<svg xmlns="http://www.w3.org/2000/svg" width="1254" height="1254" viewBox="0 0 1254 1254"><rect x="0" y="0" width="1253" height="1253" rx="130" ry="130" fill="#152A47"/><g><path d="M0 0 C0.33 0.165 0.33 0.165 2 1 C1.93941406 1.30534668 1.93941406 1.30534668 1.6328125 2.85058594 C-4.34661822 33.86313333 -3.21629938 63.80824673 6 94 C6.24202148 94.79728516 6.48404297 95.59457031 6.73339844 96.41601562 C17.56002203 131.27857963 38.32087327 161.39880689 64 187 C64.99450794 188.0159312 65.98794386 189.0329126 66.98046875 190.05078125 C73.32827216 196.52875556 79.73223586 202.54661421 87 208 C88.20480477 208.92138134 89.4092007 209.84329743 90.61328125 210.765625 C97.41365548 215.94521953 104.30189819 220.94916471 111.375 225.75 C130.14189974 238.50932041 144.65365097 252.40333539 149.54663086 275.48779297 C150.38442072 280.13015035 150.85606384 284.81338136 151.375 289.5 C155.28127312 322.33129553 167.59262048 348.38666718 192 371 C192.66 371.33 193.32 371.66 194 372 C195.0247616 368.56746522 195.16720493 365.32010747 195.3125 361.75 C196.89127166 339.32215547 207.64653178 321.11659924 219.8046875 302.73828125 C229.95162819 287.3993633 237.95513646 273.06855585 236 254 C233.77497238 244.02947081 229.00020405 237.11509207 220.55859375 231.53125 C211.71637854 226.23942044 201.60365071 224.92368879 191.625 227.25 C187.62760512 228.30591563 184.47173052 229.75284352 181 232 C180.01 231.67 179.02 231.34 178 231 C179.24231262 219.81918645 182.30676356 212.74425597 190.52734375 204.9765625 C195.78083208 200.77709158 201.79994229 198.45144126 208 196 C208.53625 194.824375 209.0725 193.64875 209.625 192.4375 C215.07915134 181.71792228 224.64920154 174.85116376 236 171 C243.57952831 169.19880428 251.24119988 168.51454521 259 168 C259.42410156 167.48050781 259.84820313 166.96101562 260.28515625 166.42578125 C266.49070014 159.04732137 272.42441142 154.07519253 282 152 C287.51867466 151.52685609 293.02621079 151.44064049 298.5625 151.375 C300.7736986 151.33819109 302.98473766 151.29730444 305.19578552 151.25234985 C307.1988309 151.21323356 309.20208258 151.18513064 311.20532227 151.15771484 C315.1989912 150.9917295 319.04286136 150.54730765 323 150 C323.33 150.66 323.66 151.32 324 152 C320.04391847 163.76995686 313.87955996 171.83338585 303 178 C299.05888195 179.83794762 295.07398372 181.48100607 291 183 C299.70349911 185.87704025 307.9011942 186.64390639 317 187 C317.33 187.66 317.66 188.32 318 189 C311.7863015 201.5867226 305.83551801 207.2461471 293 213 C293.18175781 213.54527344 293.36351562 214.09054687 293.55078125 214.65234375 C294.08424608 216.25273824 294.61387349 217.85441462 295.140625 219.45703125 C295.66410499 221.00605613 296.21049088 222.54789537 296.796875 224.07421875 C305.92215253 248.51692643 299.27254153 274.83924112 291.5546875 298.60546875 C291.33621155 299.27848022 291.1177356 299.9514917 290.89263916 300.64489746 C289.79847198 304.005447 288.69243183 307.36141494 287.56640625 310.71142578 C283.87304207 321.80009377 280.59285513 333.26495571 280 345 C279.93554688 346.26972656 279.87109375 347.53945313 279.8046875 348.84765625 C278.66010359 382.98994366 294.35094625 410.55991729 317 435 C317.85464844 435.95777344 318.70929688 436.91554688 319.58984375 437.90234375 C325.54582718 444.5660115 331.81870733 450.69151407 338.48388672 456.64111328 C341.00975802 458.90504237 343.50310532 461.20422483 346 463.5 C346.99725395 464.41421729 347.99464991 465.32827971 348.9921875 466.2421875 C351.01936769 468.10032595 353.0452699 469.95984479 355.0703125 471.8203125 C355.57506104 472.28373047 356.07980957 472.74714844 356.59985352 473.22460938 C357.61897499 474.16036746 358.63769076 475.09656758 359.65600586 476.03320312 C361.85506058 478.05200746 364.06360514 480.05574867 366.30859375 482.0234375 C372.33326043 487.30676737 378.01345029 492.90632899 383.6875 498.5625 C384.49582275 499.36623047 385.30414551 500.16996094 386.13696289 500.99804688 C390.96322233 505.8367106 395.58657283 510.78219121 400 516 C400.51699463 516.61029053 401.03398926 517.22058105 401.56665039 517.84936523 C434.83980668 557.51003844 463.62282043 609.83205879 463.0625 663.0625 C463.05347656 664.18785156 463.04445313 665.31320312 463.03515625 666.47265625 C463.02935547 666.88966797 463.02935547 666.88966797 463 669 C463.77730469 669.19851563 464.55460938 669.39703125 465.35546875 669.6015625 C470.43938714 671.55230503 474.75463518 674.42157918 479.3125 677.375 C480.28727295 678.00204834 481.2620459 678.62909668 482.26635742 679.27514648 C491.02054315 684.9434119 499.59834937 690.82184859 508 697 C508.36029297 697.26490234 508.36029297 697.26490234 510.18359375 698.60546875 C518.65477893 704.87325251 526.75738656 711.33902543 534.421875 718.57421875 C536.66719361 720.68685944 538.9590021 722.69780616 541.3125 724.6875 C545.28020499 728.13981238 548.65191997 731.95287029 552 736 C552.63808594 736.75023437 553.27617188 737.50046875 553.93359375 738.2734375 C565.79257598 752.5596968 575.72019603 768.85225997 575.30859375 787.8828125 C574.34957409 797.570125 570.48417592 804.90461078 564 812 C563.3915625 812.68835938 562.783125 813.37671875 562.15625 814.0859375 C537.21577662 840.76406681 491.83932195 845.44564957 457.3671875 846.83984375 C387.6565078 849.13900865 316.83673858 837.18046736 250.4140625 816.33984375 C250.05206253 816.22700798 250.05206253 816.22700798 248.22012329 815.6559906 C244.73534397 814.56833829 241.25766118 813.46464957 237.78955078 812.32495117 C230.21752908 809.89604431 223.01961208 808.51252956 215.10270691 807.79069519 C205.42265339 806.85553067 196.02994854 804.59439343 186.5625 802.4375 C184.69484882 802.02064403 182.82701076 801.60462448 180.95898438 801.18945312 C167.63575758 798.21191919 167.63575758 798.21191919 164 797 C177.49612028 859.27309517 177.49612028 859.27309517 198 874.125 C201 876 201 876 214 879 C215.27042013 876.45915975 215.40409261 874.28130431 215.72436523 871.45214844 C215.79117241 870.87129486 215.79117241 870.87129486 216.1292572 867.93182373 C216.20009773 867.30111969 216.20009773 867.30111969 216.55859375 864.109375 C216.78658993 862.13444937 217.01459359 860.15952457 217.24303532 858.18465042 C217.80600942 853.30723938 218.36079406 848.42889613 218.91333008 843.55029297 C219.22324361 840.81650201 219.53660601 838.08314564 219.85353088 835.35015869 C220.15179866 832.77539255 220.44474726 830.2000034 220.73179626 827.6239624 C220.86856277 826.44964661 221.00532928 825.27533081 221.14624023 824.06542969 C221.26313705 823.0366571 221.38003387 822.00788452 221.50047302 820.94793701 C222.03079497 817.81826479 222.92304314 814.9817118 224 812 C229 813 229 813 231 815 C230.32920408 826.62182838 228.84476517 838.1483968 227.41601562 849.69604492 C226.99718453 853.08528314 226.58423873 856.47520384 226.171875 859.86523438 C225.90659746 862.02608435 225.64098466 864.1868932 225.375 866.34765625 C225.25205566 867.35804459 225.12911133 868.36843292 225.00244141 869.40943909 C224.88562012 870.34819382 224.76879883 871.28694855 224.6484375 872.25415039 C224.54708496 873.07653702 224.44573242 873.89892365 224.34130859 874.74623108 C224 877 224 877 223 881 C238.49473577 878.6161945 248.1754402 873.44408531 257.72265625 861.203125 C264.95781132 851.02674908 271.2251151 840.06243775 277 829 C278.98 829 280.96 829 283 829 C284.88381612 836.53526446 277.72182902 845.413119 274 852 C267.53019347 862.77872852 259.08057017 871.39046805 250 880 C276.84886149 879.13390769 300.66438375 862.05461777 319.44140625 844.34765625 C321.55554454 842.40781333 323.66709148 840.66322654 326 839 C327.65 839.66 329.3 840.32 331 841 C324.68974257 856.77564358 302.6047645 869.64819672 288 877 C315.08870408 872.87891103 339.26717456 860.73423871 362 846 C367.28 846.66 372.56 847.32 378 848 C378 849.32 378 850.64 378 852 C360.67512538 864.77490755 342.84283303 876.72509889 324.625 888.1875 C306.89536672 899.36886231 289.66320724 911.73272905 274.23046875 925.95703125 C272.17425874 927.84038998 270.06921774 929.64082631 267.9375 931.4375 C243.3400127 953.08328882 230.85371471 982.87647316 227.71484375 1014.91015625 C226.69482947 1042.89402614 238.44733162 1068.78073395 251 1093 C246.52313406 1093 244.25755952 1089.49150571 241.1862793 1086.4543457 C230.29838329 1075.39935588 221.4284236 1062.5846148 214 1049 C213.65098633 1048.36771484 213.30197266 1047.73542969 212.94238281 1047.08398438 C207.33389517 1036.79744943 203.18514418 1026.27070889 200 1015 C199.82919922 1014.40509766 199.82919922 1014.40509766 198.96484375 1011.39453125 C194.38019097 991.84045403 195.02163112 968.16745229 201 949 C201.24137695 948.2177002 201.48275391 947.43540039 201.73144531 946.62939453 C207.85060535 927.4136926 217.81253106 911.1927729 231 896 C230.2565332 895.90501221 229.51306641 895.81002441 228.74707031 895.7121582 C199.04985064 891.85701066 171.48804004 885.38191498 145 871 C144.32743164 870.64292969 143.65486328 870.28585937 142.96191406 869.91796875 C133.69139108 864.98878509 125.21129227 859.58973455 117 853 C116.10023438 852.29230469 115.20046875 851.58460938 114.2734375 850.85546875 C77.84810468 821.72569971 52.24358294 783.14048257 40 738 C40.165 737.175 40.165 737.175 41 733 C55 740 55 740 57 744 C68.46200571 750.79007416 79.99427465 757.22069221 92 763 C91.67 761.02 91.34 759.04 91 757 C91.99 756.67 92.98 756.34 94 756 C94.825 756.495 94.825 756.495 99 759 C99.33 760.485 99.33 760.485 101 768 C102.16660156 768.3815625 103.33320313 768.763125 104.53515625 769.15625 C108.81236382 770.58170701 113.06314394 772.07683692 117.30859375 773.59375 C117.96477692 773.82803711 118.62096008 774.06232422 119.29702759 774.30371094 C122.03041462 775.28037072 124.76344102 776.25801371 127.49536133 777.23876953 C149.66200482 785.19114217 149.66200482 785.19114217 158 784 C158.825 784.495 158.825 784.495 163 787 C163 787.66 163 788.32 163 789 C169.27 790.32 175.54 791.64 182 793 C181.04222656 792.61779297 181.04222656 792.61779297 176.1953125 790.68359375 C128.23605401 771.47011662 81.14296953 750.02976511 36.69189453 723.59423828 C34.21851786 722.12941426 31.7357502 720.68302346 29.24609375 719.24609375 C5.30486908 705.40469928 -17.12923531 689.13002081 -38 671 C-38.86367188 670.24976563 -39.72734375 669.49953125 -40.6171875 668.7265625 C-43.11221638 666.5185018 -45.56417226 664.27318707 -48 662 C-48.93328125 661.13246094 -49.8665625 660.26492188 -50.828125 659.37109375 C-66.8677704 644.10973779 -83.53629699 623.53409064 -84.375 600.4375 C-83.93577386 588.05132282 -78.3246266 577.819585 -69.4375 569.3125 C-31.89057381 537.55074975 27.36382783 539.41548007 73.625 542 C75.42185139 542.09679351 77.21872639 542.19314961 79.015625 542.2890625 C83.34403737 542.52102818 87.67209212 542.75881231 92 543 C92.3491748 542.64103638 92.3491748 542.64103638 94.11621094 540.82446289 C99.55152769 535.28272853 104.99571841 530.06437255 111.25 525.4375 C111.97614502 524.89432129 112.70229004 524.35114258 113.45043945 523.79150391 C115.62321772 522.17949607 117.80856214 520.58651765 120 519 C120.30929443 518.77368896 120.30929443 518.77368896 121.87451172 517.62841797 C146.374086 499.871105 176.13251765 488.49690184 206 484 C198.45596586 482.51770575 190.90751729 481.12993727 183.3125 479.93359375 C139.33751446 472.98056106 88.8081552 462.94889707 54 433 C54.33 432.34 54.66 431.68 55 431 C55.6290625 431.01740234 55.6290625 431.01740234 58.8125 431.10546875 C76.25472324 431.44471828 90.89806631 428.61635307 107 422 C106.18023682 422.01571045 105.36047363 422.0314209 104.51586914 422.04760742 C65.09218724 422.70296357 33.10221782 414.57280741 3.8046875 386.734375 C-5.16148013 377.99298594 -12.10167342 368.39261911 -19 358 C-18.67 357.01 -18.34 356.02 -18 355 C-17.43829102 355.19634033 -16.87658203 355.39268066 -16.29785156 355.5949707 C8.6414001 364.20230066 30.83201098 366.35717614 57 363 C57.33 362.67 57.66 362.34 58 362 C57.50242187 361.95681641 57.50242187 361.95681641 54.984375 361.73828125 C22.11679927 358.56359489 -6.87316024 346.70999514 -31 324 C-31.66515625 323.41089844 -32.3303125 322.82179688 -33.015625 322.21484375 C-51.5443449 305.07954384 -63.03426529 277.75743761 -66 253 C-66.125 249.3125 -66.125 249.3125 -66 247 C-65.01 247 -64.02 247 -63 247 C-62.31035156 247.7734375 -61.62070312 248.546875 -60.91015625 249.34375 C-36.78964713 276.18754241 -4.02277557 292.8906057 32 297 C33.8115721 297.0616181 35.62505032 297.08732808 37.4375 297.0625 C38.30246094 297.05347656 39.16742188 297.04445313 40.05859375 297.03515625 C40.69925781 297.02355469 41.33992188 297.01195312 42 297 C41.04222656 296.6596875 40.08445312 296.319375 39.09765625 295.96875 C7.69917549 284.62763949 -21.45298075 266.78584146 -42 240 C-42.75023437 239.06542969 -43.50046875 238.13085938 -44.2734375 237.16796875 C-62.35938633 214.1130135 -70.18967701 186.46978475 -70.3125 157.4375 C-70.31447388 157.09903549 -70.31447388 157.09903549 -70.32446289 155.38619995 C-70.35904196 142.62670976 -68.82512968 130.4594981 -66 118 C-65.01 117.01 -64.02 116.02 -63 115 C-60.88092402 120.18550358 -58.85931143 125.38738755 -56.97949219 130.66503906 C-46.08658923 160.86477403 -24.47494689 187.69449603 1 207 C1.58120605 207.44166504 2.16241211 207.88333008 2.76123047 208.33837891 C4.68853142 209.79691727 6.62386698 211.24406392 8.5625 212.6875 C9.16336426 213.13915527 9.76422852 213.59081055 10.38330078 214.05615234 C15.03151866 217.47672856 19.90635453 220.29402361 25 223 C24.53215088 222.54262451 24.06430176 222.08524902 23.58227539 221.61401367 C14.88991007 213.09059824 6.41593604 204.67358131 -1 195 C-1.78246094 194.03449219 -2.56492187 193.06898438 -3.37109375 192.07421875 C-17.97045006 173.92971423 -29.90850916 152.55407833 -36 130 C-36.19464844 129.30487305 -36.38929688 128.60974609 -36.58984375 127.89355469 C-45.40554803 95.23799651 -39.97352354 60.86184426 -23.625 31.5625 C-16.95827749 20.0664089 -9.17170541 9.61478297 0 0 Z M130 528 C132.13922383 532.27844766 133.03152761 532.74197764 136.75 535.375 C137.63171875 536.00148438 138.5134375 536.62796875 139.421875 537.2734375 C141.57414979 538.71480941 143.65460523 539.91498093 146 541 C150 540 150 540 152.28125 537.578125 C168.82151275 520.34493791 187.96257463 508.00609631 210 499 C210 498.67 210 498.34 210 498 C183.61305916 497.21763787 151.09468801 513.20906684 130 528 Z M231 512 C220.6788757 522.3211243 200 546.05206989 200 561 C204.16221547 562.10088928 208.33052275 563.17697277 212.5 564.25 C213.634375 564.55035156 214.76875 564.85070312 215.9375 565.16015625 C227.82819016 568.19745211 239.88483301 570.09541082 252 572 C253.04645374 563.09026449 254.08980423 554.18017264 255.12921143 545.26961231 C255.61196322 541.13195412 256.0957769 536.99442589 256.58203125 532.85717773 C257.05138462 528.86339106 257.51793044 524.86928545 257.98254395 520.87494469 C258.16015996 519.35223421 258.33878171 517.8296407 258.51843262 516.30716896 C258.77017248 514.17228543 259.01831069 512.03701142 259.265625 509.90161133 C259.40774414 508.6869368 259.54986328 507.47226227 259.69628906 506.22077942 C259.95739775 503.45178637 260.0616343 500.77786677 260 498 C248.25307291 498 239.39970202 504.25990648 231 512 Z M159 540 C157.63830781 541.64357839 156.29471622 543.30316015 155 545 C162.67457084 548.6762871 170.41524018 551.66940544 178.5 554.3125 C179.56992187 554.67150391 180.63984375 555.03050781 181.7421875 555.40039062 C189.6053869 558 189.6053869 558 193 558 C193.58265625 556.83726562 194.1653125 555.67453125 194.765625 554.4765625 C203.28361571 537.73503449 212.70002337 522.36281117 226 509 C226.70511719 508.28070312 227.41023438 507.56140625 228.13671875 506.8203125 C229.74297509 505.19721909 231.3655084 503.59451762 233 502 C234.00115808 501.00115942 235.00148699 500.00148478 236 499 C207.60335587 499 178.13240197 520.98443712 159 540 Z M267 499 C264.36 523.42 261.72 547.84 259 573 C264.99433559 574.19886712 270.44651746 575.27071753 276.44140625 575.8515625 C277.09398911 575.91532074 277.74657196 575.97907898 278.41893005 576.04476929 C279.78059454 576.176539 281.14250251 576.30581611 282.50463867 576.43261719 C284.56308771 576.62505494 286.62036821 576.827594 288.67773438 577.03125 C295.47356543 577.68806871 302.17003822 578.16603222 309 578 C304.51080584 550.59985891 295.29003291 521.02513579 274 502 C271.69 501.01 269.38 500.02 267 499 Z M288 506 C291.55455712 512.28883184 291.55455712 512.28883184 293.35546875 515.1640625 C304.38818137 532.85189668 310.8931838 552.54331855 315.2734375 572.82421875 C316 576 316 576 317 578 C325.32794855 580.48654388 334.91118113 579.01491084 343.5 578.5625 C344.26521973 578.52334473 345.03043945 578.48418945 345.81884766 578.44384766 C349.62607984 578.22453898 353.28514944 577.87711749 357 577 C343.77769079 546.90184876 318.71970247 521.41477284 290 506 C289.34 506 288.68 506 288 506 Z M309 509 C312.11073092 512.20939216 315.31046995 515.14942945 318.75634766 517.99316406 C338.38306478 534.25074716 352.35614731 554.04604356 365 576 C371.20342215 575.56785464 376.99280956 575.0097719 382.9375 573.0625 C383.99839844 572.72347656 385.05929687 572.38445313 386.15234375 572.03515625 C388.55156646 571.16301082 390.75504164 570.20632702 393 569 C382.49266401 546.30018922 353.33064096 529.31277484 332.25 518.1875 C331.38697266 517.73125244 330.52394531 517.27500488 329.63476562 516.80493164 C314.56872984 509 314.56872984 509 309 509 Z M115.12646484 539.66137695 C112.70342378 541.71684104 110.28070924 543.76968739 107.82421875 545.78515625 C103.37225587 549.45930492 99.70583447 553.58437868 96 558 C95.236875 558.87527344 94.47375 559.75054688 93.6875 560.65234375 C83.81777031 572.14132597 76.16044092 584.33378445 69.125 597.75 C68.57739014 598.79115967 68.02978027 599.83231934 67.46557617 600.9050293 C64.10218585 607.44867299 61.33025616 614.02130539 59 621 C64.52236421 632.04472842 80.43170819 637.673936 91 643 C91.66 642.67 92.32 642.34 93 642 C93.25579834 641.19594727 93.51159668 640.39189453 93.77514648 639.56347656 C103.19409132 610.14632206 114.30508817 582.28545519 134 558 C134.38414062 557.5153125 134.38414062 557.5153125 136.328125 555.0625 C138.20653138 552.69807239 140.09656482 550.34428529 142 548 C142 547.34 142 546.68 142 546 C141.63777344 545.78214844 141.63777344 545.78214844 139.8046875 544.6796875 C134.19494208 541.22408432 129.41805995 537.89568806 125 533 C121.29864314 533 117.9264577 537.28602577 115.12646484 539.66137695 Z M-50.25390625 574.05859375 C-56.99652216 581.55541726 -61.73036834 591.43388445 -61.2734375 601.64453125 C-59.56939877 616.32360778 -51.74834713 630.16028194 -42 641 C-41.28972656 641.81726563 -40.57945312 642.63453125 -39.84765625 643.4765625 C-31.27689894 653.20715867 -22.20517357 661.99837268 -12 670 C-11.01386719 670.77988281 -10.02773438 671.55976562 -9.01171875 672.36328125 C58.00121089 724.68844549 139.8523109 760.76905837 388 828 C388.81207916 828.0875354 389.62415833 828.1750708 390.46084595 828.26525879 C404.76188469 829.76384263 418.94019457 830.3170718 433.31616211 830.26074219 C436.56447953 830.24999345 439.81224565 830.26073451 443.06054688 830.2734375 C478.42542539 830.29813819 519.28651599 827.84243579 546.12109375 801.90625 C548.42385672 799.56997489 549.4460997 797.18367213 550.9375 794.25 C551.21013672 793.71632813 551.21013672 793.71632813 552.58984375 791.015625 C557.07108561 781.43247067 555.83253925 770.4539746 552.4050293 760.68945312 C548.03485345 749.33376226 540.99505565 739.09490458 533 730 C532.56316895 729.50290527 532.12633789 729.00581055 531.67626953 728.49365234 C512.22185007 706.51476651 488.76756033 689.54350854 464 674 C463.67 674 463.34 674 463 674 C462.96036133 674.72775635 462.92072266 675.4555127 462.87988281 676.20532227 C460.10205017 725.09747881 447.52288504 773.04060382 415.96484375 811.59765625 C412.90283904 815.34145922 409.96066731 819.17580473 407 823 C396 823 396 823 392 821 C392.71285156 820.10539062 393.42570312 819.21078125 394.16015625 818.2890625 C409.39524615 799.0914112 409.39524615 799.0914112 412 792 C411.4738208 792.1858667 410.9476416 792.3717334 410.40551758 792.56323242 C393.25331158 798.57326465 376.00235225 803.359655 358 806 C355.36 809.63 352.72 813.26 350 817 C348.35 816.67 346.7 816.34 345 816 C345.309375 815.236875 345.61875 814.47375 345.9375 813.6875 C346.67893593 811.81210323 347.36228217 809.91315348 348 808 C342.54027728 807.92910304 337.1222453 807.93986795 331.67578125 808.359375 C319.96107071 809.23921675 310.17108008 808.72902816 299 805 C299 804.34 299 803.68 299 803 C299.88969482 802.98018066 300.77938965 802.96036133 301.69604492 802.93994141 C318.87182817 802.53882964 335.91982444 802.00143127 353 800 C368.33945331 770.13747885 382 735.19550437 382 701 C381.25878906 701.03029297 380.51757812 701.06058594 379.75390625 701.09179688 C359.82410153 701.88459816 339.94439472 702.12858418 320 702 C319.87995605 702.85827393 319.75991211 703.71654785 319.63623047 704.60083008 C314.83932134 738.50635853 308.073077 771.84935171 296 804 C294.02 803.34 292.04 802.68 290 802 C290.26627197 801.15743652 290.53254395 800.31487305 290.80688477 799.44677734 C298.76456818 774.11987014 305.52159627 748.77319424 309.9375 722.5625 C310.14930908 721.30606689 310.36111816 720.04963379 310.5793457 718.75512695 C311.49108064 713.08465617 312.09798162 707.75743637 312 702 C310.85337891 701.89453857 309.70675781 701.78907715 308.52539062 701.68041992 C266.54435093 697.80730261 266.54435093 697.80730261 246 695 C225.33064534 715.66935466 238.37619192 752.96474948 235 782 C234.34 782.99 233.68 783.98 233 785 C231.35 784.34 229.7 783.68 228 783 C231.28469294 753.32772485 234.57642757 723.65661937 238 694 C237.71765503 693.94259644 237.71765503 693.94259644 236.28881836 693.65209961 C224.14494806 691.17393168 212.02384651 688.60070389 199.93093872 685.88504028 C197.99660033 685.45076842 196.06166341 685.01916525 194.12670898 684.58764648 C186.37288068 682.8356015 178.70551765 680.88483697 171.04907227 678.75415039 C168 678 168 678 165 678 C162.81278564 686.40799287 162.13131261 694.87129559 161.4375 703.5 C161.37307709 704.27670044 161.30865417 705.05340088 161.24227905 705.8536377 C159.8681256 722.55334519 159.30113162 739.24976188 159 756 C158.01 755.67 158.01 755.67 153 754 C152.55597617 732.78704621 153.61841199 711.97941098 155.63623047 690.86572266 C156.13357005 685.58057166 156.57382481 680.29130478 157 675 C156.47418335 674.82404297 156.47418335 674.82404297 153.81323242 673.93359375 C115.35509459 661.03952397 115.35509459 661.03952397 100 654 C99.01 654.33 98.02 654.66 97 655 C93.00218687 678.87019484 91.2634214 701.84819921 93 726 C87 724 87 724 86 723 C84.76319183 701.83982541 85.16508829 681.53911801 89.03417969 660.66772461 C89.70524116 657.04545898 90.05922847 653.67769334 90 650 C89.38592285 649.67837891 88.7718457 649.35675781 88.13916016 649.02539062 C65.64546447 637.18082298 65.64546447 637.18082298 58 630 C57.34 630 56.68 630 56 630 C49.307159 653.38526263 47.42330752 675.78026171 47 700 C42.70816541 698.35442612 38.95419701 696.32599824 35 694 C34.03933856 639.88273868 51.75785536 590.20483073 87 549 C87 548.67 87 548.34 87 548 C44.45610411 545.05869362 -16.58460879 542.76924663 -50.25390625 574.05859375 Z M148 551 C125.79129036 576.69813047 103.08963439 612.40422543 100 647 C114.21465838 652.75359078 128.45537191 658.31806874 143 663.1875 C144.14380127 663.57349365 145.28760254 663.9594873 146.46606445 664.35717773 C147.52913818 664.70723877 148.59221191 665.0572998 149.6875 665.41796875 C150.15349609 665.57148804 150.15349609 665.57148804 152.51171875 666.34838867 C155 667 155 667 159 667 C159.1451001 666.22736816 159.2902002 665.45473633 159.43969727 664.65869141 C165.9382265 630.36610202 174.98765461 597.06135982 189 565 C188.19892822 564.71801758 187.39785645 564.43603516 186.57250977 564.14550781 C183.55779991 563.0823377 180.54428157 562.01587013 177.53149414 560.94726562 C176.23540197 560.4882899 174.93886299 560.03057363 173.6418457 559.57421875 C166.28410598 556.98438524 159.07286892 554.29400206 152 551 C150.68 551 149.36 551 148 551 Z M196 567 C182.59711199 597.68522612 166 635.89585237 166 670 C175.73884202 673.15945177 185.53314316 675.68882865 195.5 678 C196.24035492 678.17297607 196.98070984 678.34595215 197.74349976 678.52416992 C206.90406225 680.66185255 216.07357569 682.7248355 225.3125 684.5 C226.14007812 684.65984375 226.96765625 684.8196875 227.8203125 684.984375 C231.66245983 685.69127774 235.06403719 686 239 686 C242.96 651.02 246.92 616.04 251 580 C246.50025411 578.5000847 242.37006451 577.36411622 237.7578125 576.4140625 C237.07177948 576.27100677 236.38574646 576.12795105 235.67892456 575.9805603 C233.49497034 575.52531603 231.31011837 575.07462081 229.125 574.625 C218.01130438 572.33658904 206.98806152 569.83449405 196 567 Z M394.4296875 575.20703125 C386.00882323 579.01030071 378.14765892 581.41514724 369 583 C370.42036496 587.39353433 371.87048986 591.75944753 373.578125 596.05078125 C385.89383641 627.18134736 389.35775563 658.84457773 390 692 C397.97705672 691.49886036 405.63722232 690.48760985 413.4375 688.75 C414.43015869 688.53255127 415.42281738 688.31510254 416.44555664 688.09106445 C423.94825395 686.38359625 430.97147971 684.17025387 438 681 C444.99642135 660.01073595 427.41192438 624.18582789 418.13671875 605.171875 C412.65341714 594.26099124 405.88065861 584.06788466 399 574 C397 574 397 574 394.4296875 575.20703125 Z M258 581 C254.04 616.31 250.08 651.62 246 688 C296.67137097 694.17943548 296.67137097 694.17943548 307.3125 694.0625 C308.40175781 694.05347656 309.49101563 694.04445313 310.61328125 694.03515625 C311.40089844 694.02355469 312.18851563 694.01195312 313 694 C326.37725403 667.24549194 315.28456132 613.73539359 311 586 C309.78570313 585.89042969 308.57140625 585.78085937 307.3203125 585.66796875 C295.76104317 584.60475834 284.23231065 583.37258064 272.70947266 581.96557617 C271.66194824 581.84029541 270.61442383 581.71501465 269.53515625 581.5859375 C269.07306763 581.52946045 269.07306763 581.52946045 266.73461914 581.24365234 C263.83343985 580.98515963 260.91267227 581 258 581 Z M353.796875 584.46484375 C346.62070425 585.07286659 339.44678683 585.33337474 332.25 585.5625 C330.96867187 585.60568359 329.68734375 585.64886719 328.3671875 585.69335938 C325.24486934 585.79821334 322.12248879 585.90038018 319 586 C319.45690651 593.057831 319.99016146 600.08916297 320.73535156 607.12207031 C323.83809168 636.4664353 323.36483472 665.61511506 321 695 C326.546058 695.02507608 332.09208163 695.04303422 337.63818359 695.05493164 C339.51742123 695.05990147 341.39665512 695.06667966 343.27587891 695.07543945 C374.52305555 695.21724458 374.52305555 695.21724458 382 693 C382.9581548 655.12708874 378.17290873 618.34581745 361 584 C358.57587477 584 356.2116468 584.24356417 353.796875 584.46484375 Z M432.52734375 689.93066406 C422.61884942 693.40029125 412.73065329 695.69685563 402.41015625 697.55664062 C398.26327166 698.3194792 394.13220489 699.16180249 390 700 C388.83871289 702.32257421 388.6896913 704.08817808 388.421875 706.671875 C386.87348208 720.72850806 384.57805213 734.31592146 381 748 C380.77973145 748.8451416 380.55946289 749.6902832 380.33251953 750.56103516 C376.76876857 763.92316023 371.67608664 776.41020311 366 789 C365.24118791 790.7039823 364.48333048 792.40839014 363.7265625 794.11328125 C363.39479004 794.86005127 363.06301758 795.60682129 362.72119141 796.3762207 C362.48319824 796.91206787 362.24520508 797.44791504 362 798 C369.49027889 797.48406951 376.54650109 796.1097014 383.8125 794.25 C384.86840332 793.98195557 385.92430664 793.71391113 387.01220703 793.43774414 C398.37141894 790.48469883 408.53716464 786.30074199 419 781 C430.86963325 754.8503337 439.29987957 727.87954732 439.0625 698.9375 C439.05798828 697.88111328 439.05347656 696.82472656 439.04882812 695.73632812 C439.03715918 693.15749092 439.02078885 690.57877706 439 688 C436.75547243 688 434.62655379 689.18655539 432.52734375 689.93066406 Z M61 755 C65.02036141 780.78914759 86.50404909 805.87033748 104 824 C104.68449219 824.72445312 105.36898437 825.44890625 106.07421875 826.1953125 C116.47080263 836.95039927 129.05345467 846.48421526 142 854 C142.66 853.67 143.32 853.34 144 853 C143.11699219 852.16339844 142.23398437 851.32679688 141.32421875 850.46484375 C118.77163612 828.74953128 105.48193335 802.19286503 95 773 C71.21122564 759.91172879 71.21122564 759.91172879 61 755 Z M104 777 C115.51277045 814.61848239 140.15323723 849.50508056 175.33496094 868.24365234 C177.21259956 869.18412378 179.10482492 870.09538695 181 871 C181.99 870.67 182.98 870.34 184 870 C183.52691406 869.43796875 183.05382812 868.8759375 182.56640625 868.296875 C166.12331341 847.39844122 160.3036295 819.66139331 156 794 C155.01829834 793.69819824 154.03659668 793.39639648 153.02514648 793.08544922 C149.30491685 791.93990165 145.58731292 790.78601783 141.87036133 789.62988281 C140.27598965 789.1351716 138.68095829 788.64258034 137.08520508 788.15234375 C126.50737892 784.90070333 116.2045596 781.28619888 106 777 C105.34 777 104.68 777 104 777 Z " fill="#F2EDE1" transform="translate(371,94)"/><path d="M0 0 C1.6958686 1.64287271 3.35483453 3.3068005 5 5 C5.58136719 5.59683594 6.16273438 6.19367188 6.76171875 6.80859375 C23.16914731 24.41413069 33.31479452 46.81817616 39 70 C39.26554688 71.07636719 39.53109375 72.15273437 39.8046875 73.26171875 C46.92200626 109.77453898 34.85820012 147.3881359 14.71630859 177.63916016 C10.12479003 184.33878463 5.23161953 190.78685622 0 197 C-0.43393066 197.52271484 -0.86786133 198.04542969 -1.31494141 198.58398438 C-8.45671401 207.17861158 -15.97208617 215.22829618 -24 223 C-17.85151042 219.7788523 -12.28049007 216.2069201 -6.8125 211.9375 C-6.08345459 211.37313232 -5.35440918 210.80876465 -4.60327148 210.22729492 C11.108193 197.96889956 25.02786243 184.98538739 37 169 C37.63808594 168.15695312 38.27617188 167.31390625 38.93359375 166.4453125 C50.17076896 151.02988046 57.26876323 134.10396556 63 116 C63.99 116 64.98 116 66 116 C66.65247647 119.14449224 67.29572575 122.29080756 67.9375 125.4375 C68.11990234 126.31599609 68.30230469 127.19449219 68.49023438 128.09960938 C72.52337209 147.97197884 72.78339539 169.23853788 68 189 C67.92217285 189.32508545 67.92217285 189.32508545 67.52832031 190.97021484 C61.56028851 214.72917578 48.81930778 234.5867901 32 252 C31.14921875 252.91394531 30.2984375 253.82789063 29.421875 254.76953125 C11.47140829 273.5530286 -11.12759909 285.43418853 -35 295 C-36.02351562 295.41121094 -37.04703125 295.82242187 -38.1015625 296.24609375 C-38.72804688 296.49488281 -39.35453125 296.74367188 -40 297 C-4.0473466 296.4406235 31.89066833 280.63858849 57 255 C59.74856527 252.06459872 62.42106627 249.08537087 65 246 C65.66 246.33 66.32 246.66 67 247 C66.37145116 275.6275427 52.84712134 302.9476647 33 323 C32.26136719 323.79921875 31.52273438 324.5984375 30.76171875 325.421875 C8.51922054 349.00624239 -24.70133324 358.79149346 -56 362 C-49.34672869 363.91921288 -42.90694732 364.63510467 -36 365 C-35.55462891 365.02707031 -35.55462891 365.02707031 -33.30078125 365.1640625 C-17.44298891 365.66173929 -1.86046436 362.25404983 13 357 C14.9990905 356.33061101 16.99878124 355.66299919 19 355 C19.33 355.99 19.66 356.98 20 358 C-1.46052745 389.91175359 -26.85076509 411.79885586 -64.90234375 420.421875 C-73.65727302 422.05583406 -82.10397911 422.1191348 -91 422.0625 C-92.36067544 422.05747487 -93.72135267 422.05291376 -95.08203125 422.04882812 C-98.38806725 422.03710459 -101.69401001 422.02069427 -105 422 C-92.41634219 427.44005166 -92.41634219 427.44005166 -86.25 428.75 C-85.24453125 428.97171875 -84.2390625 429.1934375 -83.203125 429.421875 C-76.21904595 430.6824161 -69.57958928 431.13744679 -62.5 431.0625 C-61.67757812 431.05798828 -60.85515625 431.05347656 -60.0078125 431.04882812 C-58.00517604 431.03718489 -56.00257773 431.01925556 -54 431 C-54 431.99 -54 432.98 -54 434 C-73.59703235 449.35157474 -96.14425119 459.38945665 -120.0625 465.875 C-120.81176758 466.07859131 -121.56103516 466.28218262 -122.33300781 466.49194336 C-127.8529231 467.90252038 -133.32426532 468.56357572 -139 469 C-169.53233196 448.1522576 -200.19474987 421.99924407 -208 384 C-207.39414062 383.5875 -206.78828125 383.175 -206.1640625 382.75 C-197.91235419 377.06266873 -190.01128733 371.18602346 -183 364 C-182.60490234 363.5978125 -182.60490234 363.5978125 -180.60546875 361.5625 C-174.30606574 354.88655756 -169.46803482 348.04246267 -165 340 C-164.38125 338.88625 -163.7625 337.7725 -163.125 336.625 C-154.36106089 320.00373617 -151.53245682 303.33448011 -149.55078125 284.85546875 C-147.30389612 265.16945686 -139.68545713 248.36208555 -124.24267578 235.54101562 C-119.95044258 232.18774418 -115.49525881 229.0732044 -111 226 C-110.43490723 225.61247559 -109.86981445 225.22495117 -109.28759766 224.82568359 C-108.74538574 224.4539502 -108.20317383 224.0822168 -107.64453125 223.69921875 C-84.45865952 207.79952839 -62.24825167 189.33262436 -45 167 C-44.2265625 166.04351562 -43.453125 165.08703125 -42.65625 164.1015625 C-31.60162255 150.2133122 -22.42468204 135.11241343 -15 119 C-14.46890625 117.865625 -13.9378125 116.73125 -13.390625 115.5625 C2.86193037 79.37124268 6.55326357 39.81091815 -1 1 C-0.67 0.67 -0.34 0.34 0 0 Z " fill="#F2EDE1" transform="translate(879,94)"/><path d="M0 0 C0.33 0.33 0.33 0.33 2 2 C-4.54741729 10.90128808 -11.20899233 19.61224862 -18.41796875 27.98828125 C-20.8223964 30.79284058 -23.17075122 33.63291403 -25.5 36.5 C-28.24994948 39.88380308 -31.04027917 43.2240986 -33.8828125 46.53051758 C-60.3016251 77.34145777 -84.11192269 110.72386077 -84.3125 152.6875 C-84.31813965 153.80358643 -84.3237793 154.91967285 -84.32958984 156.06958008 C-84.26191434 163.86201234 -83.37632347 171.33371284 -82 179 C-82.99 179 -83.98 179 -85 179 C-100.25645515 158.06294984 -105.65924024 133.02875047 -102.71142578 107.50097656 C-99.49565416 87.3948501 -89.36853586 69.87202579 -75.35253906 55.40820312 C-74.13684394 54.14247579 -72.95293935 52.84639634 -71.7734375 51.546875 C-58.91912568 37.82955284 -42.36927302 27.72724173 -26.62207031 17.68847656 C-21.85644991 14.61966551 -17.14881816 11.46378978 -12.4375 8.3125 C-11.53845947 7.71171631 -10.63941895 7.11093262 -9.71313477 6.49194336 C-8.12539488 5.43043634 -6.53794763 4.36849135 -4.95092773 3.3059082 C-3.30187078 2.20206567 -1.6511235 1.100749 0 0 Z " fill="#F2EDE1" transform="translate(727,986)"/></g><g><path d="M0 0 C4.26879365 3.83669935 6.70436339 7.66713116 9.1875 12.8125 C9.52974609 13.48603516 9.87199219 14.15957031 10.22460938 14.85351562 C16.04597324 26.66579764 17.2635907 40.82299562 13.4375 53.5 C8.75986391 65.38283695 0.11652374 74.05576555 -10 81.5 C-19.35337029 88.40002726 -27.85990175 95.96740678 -30 108 C-30.41350735 116.26053048 -30.24541432 124.00071148 -28 132 C-32.75730504 132 -35.58413639 128.14456758 -39 125 C-47.05677105 116.87031699 -51.25115616 107.36713004 -51.375 95.8125 C-51.14057737 81.81609025 -45.42821826 70.36486035 -35.75 60.375 C-31.5576566 56.36866501 -27.0785516 52.75112803 -22.5703125 49.109375 C-11.94087018 40.38612447 -3.46464088 28.92039472 -1.74316406 14.90966797 C-1.31848443 10.27781527 -1.11799029 5.6488176 -1 1 C-0.67 0.67 -0.34 0.34 0 0 Z " fill="#E8843C" transform="translate(641,119)"/><path d="M0 0 C0.33 0.165 0.33 0.165 2 1 C4.85646465 9.56939394 3.7315441 20.8495221 0 29 C-8.01686154 43.69757948 -19.08478091 48.84046815 -34.43432617 53.6862793 C-45.09739296 57.16931505 -51.57690004 62.50791388 -56.8125 72.4375 C-57.0084375 72.8603125 -57.0084375 72.8603125 -58 75 C-58.99 75 -59.98 75 -61 75 C-64.62927915 65.66756791 -64.94573379 59.02154572 -61.26171875 49.67578125 C-54.70080345 35.76176584 -42.38239737 30.10231826 -28.85327148 24.39282227 C-16.28565275 19.05796658 -6.92880949 12.13074646 0 0 Z " fill="#E8843C" transform="translate(683,176)"/></g></svg>
