<svg xmlns="http://www.w3.org/2000/svg" width="1254" height="1254" viewBox="0 0 1254 1254"><rect x="0" y="0" width="1253" height="1253" rx="130" ry="130" fill="#152A47"/><path d="M 390.473 875.952 C 379.323 834.341 490.509 768.396 638.812 728.658 C 787.116 688.920 916.378 690.438 927.527 732.048" fill="none" stroke="#F2EDE1" stroke-width="10.0" stroke-linecap="round"/><circle cx="655.0" cy="804.0" r="207.0" fill="none" stroke="#F2EDE1" stroke-width="9.0"/><g fill="none" stroke="#F2EDE1" stroke-width="8.0" stroke-linecap="round" stroke-linejoin="round"><path d="M 574.969 994.903 C 479.041 954.688 437.108 836.617 481.308 731.184 C 525.508 625.751 639.104 572.882 735.031 613.097"/><path d="M 619.585 1007.948 C 541.148 994.328 493.419 891.975 512.978 779.338 C 532.537 666.701 611.979 586.432 690.415 600.052"/><path d="M 640.149 1010.467 C 597.176 1007.376 568.987 912.432 577.189 798.403 C 585.391 684.375 626.877 594.442 669.851 597.533"/><path d="M 655.000 1011.000 C 655.000 1011.000 655.000 918.323 655.000 804.000 C 655.000 689.677 655.000 597.000 655.000 597.000"/><path d="M 669.851 1010.467 C 712.824 1007.376 741.013 912.432 732.811 798.403 C 724.609 684.375 683.123 594.442 640.149 597.533"/><path d="M 690.415 1007.948 C 768.852 994.328 816.581 891.975 797.022 779.338 C 777.463 666.701 698.021 586.432 619.585 600.052"/><path d="M 735.031 994.903 C 830.959 954.688 872.892 836.617 828.692 731.184 C 784.492 625.751 670.896 572.882 574.969 613.097"/><path d="M 556.445 986.033 C 570.183 993.471 610.016 998.516 655.000 998.516 C 699.984 998.516 739.817 993.471 753.555 986.033"/><path d="M 476.664 909.097 C 486.024 924.979 563.060 937.057 655.000 937.057 C 746.940 937.057 823.976 924.979 833.336 909.097"/><path d="M 448.000 804.000 C 448.000 823.852 540.677 839.945 655.000 839.945 C 769.323 839.945 862.000 823.852 862.000 804.000"/><path d="M 476.664 698.903 C 469.699 710.723 502.085 722.200 560.142 728.487 C 618.199 734.774 691.801 734.774 749.858 728.487 C 807.915 722.200 840.301 710.723 833.336 698.903"/><path d="M 556.445 621.967 C 542.780 629.365 558.039 637.451 594.270 642.010 C 630.501 646.569 679.499 646.569 715.730 642.010 C 751.961 637.451 767.220 629.365 753.555 621.967"/></g><g><path d="M0 0 C0.33 0.165 0.33 0.165 2 1 C1.939414 1.305347 1.939414 1.305347 1.632812 2.850586 C-4.346618 33.863133 -3.216299 63.808247 6 94 C6.242021 94.797285 6.484043 95.59457 6.733398 96.416016 C17.560022 131.27858 38.320873 161.398807 64 187 C64.994508 188.015931 65.987944 189.032913 66.980469 190.050781 C73.328272 196.528756 79.732236 202.546614 87 208 C88.204805 208.921381 89.409201 209.843297 90.613281 210.765625 C97.413655 215.94522 104.301898 220.949165 111.375 225.75 C130.1419 238.50932 144.653651 252.403335 149.546631 275.487793 C150.384421 280.13015 150.856064 284.813381 151.375 289.5 C155.281273 322.331296 167.59262 348.386667 192 371 C192.66 371.33 193.32 371.66 194 372 C195.024762 368.567465 195.167205 365.320107 195.3125 361.75 C196.891272 339.322155 207.646532 321.116599 219.804688 302.738281 C229.951628 287.399363 237.955136 273.068556 236 254 C233.774972 244.029471 229.000204 237.115092 220.558594 231.53125 C211.716379 226.23942 201.603651 224.923689 191.625 227.25 C187.627605 228.305916 184.471731 229.752844 181 232 C180.01 231.67 179.02 231.34 178 231 C179.242313 219.819186 182.306764 212.744256 190.527344 204.976562 C195.780832 200.777092 201.799942 198.451441 208 196 C208.53625 194.824375 209.0725 193.64875 209.625 192.4375 C215.079151 181.717922 224.649202 174.851164 236 171 C243.579528 169.198804 251.2412 168.514545 259 168 C259.424102 167.480508 259.848203 166.961016 260.285156 166.425781 C266.4907 159.047321 272.424411 154.075193 282 152 C287.518675 151.526856 293.026211 151.44064 298.5625 151.375 C300.773699 151.338191 302.984738 151.297304 305.195786 151.25235 C307.198831 151.213234 309.202083 151.185131 311.205322 151.157715 C315.198991 150.99173 319.042861 150.547308 323 150 C323.33 150.66 323.66 151.32 324 152 C320.043918 163.769957 313.87956 171.833386 303 178 C299.058882 179.837948 295.073984 181.481006 291 183 C299.703499 185.87704 307.901194 186.643906 317 187 C317.33 187.66 317.66 188.32 318 189 C311.786302 201.586723 305.835518 207.246147 293 213 C293.181758 213.545273 293.363516 214.090547 293.550781 214.652344 C294.084246 216.252738 294.613873 217.854415 295.140625 219.457031 C295.664105 221.006056 296.210491 222.547895 296.796875 224.074219 C305.922153 248.516926 299.272542 274.839241 291.554688 298.605469 C291.336212 299.27848 291.117736 299.951492 290.892639 300.644897 C289.798472 304.005447 288.692432 307.361415 287.566406 310.711426 C283.873042 321.800094 280.592855 333.264956 280 345 C279.935547 346.269727 279.871094 347.539453 279.804688 348.847656 C278.660104 382.989944 294.350946 410.559917 317 435 C317.854648 435.957773 318.709297 436.915547 319.589844 437.902344 C325.545827 444.566011 331.818707 450.691514 338.483887 456.641113 C341.009758 458.905042 343.503105 461.204225 346 463.5 C346.997254 464.414217 347.99465 465.32828 348.992188 466.242188 C351.019368 468.100326 353.04527 469.959845 355.070312 471.820312 C355.575061 472.28373 356.07981 472.747148 356.599854 473.224609 C357.618975 474.160367 358.637691 475.096568 359.656006 476.033203 C361.855061 478.052007 364.063605 480.055749 366.308594 482.023438 C372.33326 487.306767 378.01345 492.906329 383.6875 498.5625 C384.495823 499.36623 385.304146 500.169961 386.136963 500.998047 C390.963222 505.836711 395.586573 510.782191 400 516 C400.516995 516.610291 401.033989 517.220581 401.56665 517.849365 C442.456046 566.588383 468.154299 626.898027 463.084473 691.382812 C458.605057 740.715936 440.388145 786.237521 407 823 C405.68 823.33 404.36 823.66 403 824 C398 821 398 821 396 816 C398.072372 812.426281 400.337053 809.117978 402.8125 805.8125 C412.880231 792.055121 412.880231 792.055121 415 784 C415.580078 783.351602 416.160156 782.703203 416.757812 782.035156 C419.473856 778.358561 421.139778 774.645888 422.875 770.4375 C423.220146 769.604685 423.565293 768.77187 423.920898 767.913818 C432.847629 745.85092 438.212649 722.513541 438.125 698.6875 C438.128867 697.616934 438.132734 696.546367 438.136719 695.443359 C438.13543 694.414043 438.134141 693.384727 438.132812 692.324219 C438.131685 691.39698 438.130557 690.469741 438.129395 689.514404 C438.010108 687.196422 437.654519 685.219319 437 683 C437.186914 682.379961 437.373828 681.759922 437.566406 681.121094 C438.188086 676.646117 437.558616 672.518178 436.9375 668.0625 C436.803196 667.096831 436.668892 666.131162 436.530518 665.13623 C431.684537 632.838408 418.222672 602.268925 399 576 C399 575.34 399 574.68 399 574 C397.68 573.34 396.36 572.68 395 572 C394.809863 571.701582 394.809863 571.701582 393.847656 570.191406 C384.183532 555.959556 371.090279 543.78443 357 534 C355.951992 533.269102 354.903984 532.538203 353.824219 531.785156 C337.961632 521.179032 321.074107 513.052244 303 507 C300.36 507.66 297.72 508.32 295 509 C292.03 507.68 289.06 506.36 286 505 C283.69 505.33 281.38 505.66 279 506 C275.37 504.02 271.74 502.04 268 500 C259.61526 499.10595 252.17443 498.720954 244 501 C242.68 500.34 241.36 499.68 240 499 C242.795378 494.63712 245.855055 490.667702 249.25 486.75 C253.447833 481.852764 257.538974 476.889462 261.539062 471.828125 C263 470 263 470 264 469 C263.318827 469.003142 262.637654 469.006285 261.93584 469.009522 C245.227413 469.083452 228.519729 469.106396 211.811183 469.075158 C203.730402 469.061233 195.650277 469.063482 187.56958 469.106201 C180.5121 469.143467 173.455421 469.147952 166.397904 469.115829 C162.673578 469.09995 158.95075 469.098603 155.226553 469.136766 C135.427111 469.325863 118.464269 466.630112 100 459 C99.028175 458.602259 98.056349 458.204519 97.055075 457.794725 C81.758934 451.475374 66.617534 443.856112 54 433 C54.33 432.34 54.66 431.68 55 431 C55.629063 431.017402 55.629063 431.017402 58.8125 431.105469 C76.254723 431.444718 90.898066 428.616353 107 422 C106.180237 422.01571 105.360474 422.031421 104.515869 422.047607 C65.092187 422.702964 33.102218 414.572807 3.804688 386.734375 C-5.16148 377.992986 -12.101673 368.392619 -19 358 C-18.67 357.01 -18.34 356.02 -18 355 C-17.438291 355.19634 -16.876582 355.392681 -16.297852 355.594971 C8.6414 364.202301 30.832011 366.357176 57 363 C57.33 362.67 57.66 362.34 58 362 C57.502422 361.956816 57.502422 361.956816 54.984375 361.738281 C22.116799 358.563595 -6.87316 346.709995 -31 324 C-31.665156 323.410898 -32.330312 322.821797 -33.015625 322.214844 C-51.544345 305.079544 -63.034265 277.757438 -66 253 C-66.125 249.3125 -66.125 249.3125 -66 247 C-65.01 247 -64.02 247 -63 247 C-62.310352 247.773438 -61.620703 248.546875 -60.910156 249.34375 C-36.789647 276.187542 -4.022776 292.890606 32 297 C33.811572 297.061618 35.62505 297.087328 37.4375 297.0625 C38.302461 297.053477 39.167422 297.044453 40.058594 297.035156 C40.699258 297.023555 41.339922 297.011953 42 297 C41.042227 296.659688 40.084453 296.319375 39.097656 295.96875 C7.699175 284.627639 -21.452981 266.785841 -42 240 C-42.750234 239.06543 -43.500469 238.130859 -44.273438 237.167969 C-62.359386 214.113014 -70.189677 186.469785 -70.3125 157.4375 C-70.316448 156.760571 -70.320396 156.083642 -70.324463 155.3862 C-70.359042 142.62671 -68.82513 130.459498 -66 118 C-65.01 117.01 -64.02 116.02 -63 115 C-60.880924 120.185504 -58.859311 125.387388 -56.979492 130.665039 C-46.086589 160.864774 -24.474947 187.694496 1 207 C1.581206 207.441665 2.162412 207.88333 2.76123 208.338379 C4.688531 209.796917 6.623867 211.244064 8.5625 212.6875 C9.163364 213.139155 9.764229 213.590811 10.383301 214.056152 C15.031519 217.476729 19.906355 220.294024 25 223 C24.532151 222.542625 24.064302 222.085249 23.582275 221.614014 C14.88991 213.090598 6.415936 204.673581 -1 195 C-1.782461 194.034492 -2.564922 193.068984 -3.371094 192.074219 C-17.97045 173.929714 -29.908509 152.554078 -36 130 C-36.194648 129.304873 -36.389297 128.609746 -36.589844 127.893555 C-45.405548 95.237997 -39.973524 60.861844 -23.625 31.5625 C-16.958277 20.066409 -9.171705 9.614783 0 0 Z " fill="#F2EDE1" transform="translate(371,94)"/><path d="M0 0 C1.695869 1.642873 3.354835 3.306801 5 5 C5.581367 5.596836 6.162734 6.193672 6.761719 6.808594 C23.169147 24.414131 33.314795 46.818176 39 70 C39.265547 71.076367 39.531094 72.152734 39.804688 73.261719 C46.922006 109.774539 34.8582 147.388136 14.716309 177.63916 C10.12479 184.338785 5.23162 190.786856 0 197 C-0.433931 197.522715 -0.867861 198.04543 -1.314941 198.583984 C-8.456714 207.178612 -15.972086 215.228296 -24 223 C-17.85151 219.778852 -12.28049 216.20692 -6.8125 211.9375 C-6.083455 211.373132 -5.354409 210.808765 -4.603271 210.227295 C11.108193 197.9689 25.027862 184.985387 37 169 C37.638086 168.156953 38.276172 167.313906 38.933594 166.445312 C50.170769 151.02988 57.268763 134.103966 63 116 C63.99 116 64.98 116 66 116 C66.652476 119.144492 67.295726 122.290808 67.9375 125.4375 C68.119902 126.315996 68.302305 127.194492 68.490234 128.099609 C72.523372 147.971979 72.783395 169.238538 68 189 C67.922173 189.325085 67.922173 189.325085 67.52832 190.970215 C61.560289 214.729176 48.819308 234.58679 32 252 C31.149219 252.913945 30.298437 253.827891 29.421875 254.769531 C11.471408 273.553029 -11.127599 285.434189 -35 295 C-36.023516 295.411211 -37.047031 295.822422 -38.101562 296.246094 C-38.728047 296.494883 -39.354531 296.743672 -40 297 C-4.047347 296.440623 31.890668 280.638588 57 255 C59.748565 252.064599 62.421066 249.085371 65 246 C65.66 246.33 66.32 246.66 67 247 C66.371451 275.627543 52.847121 302.947665 33 323 C32.261367 323.799219 31.522734 324.598437 30.761719 325.421875 C8.519221 349.006242 -24.701333 358.791493 -56 362 C-49.346729 363.919213 -42.906947 364.635105 -36 365 C-35.554629 365.02707 -35.554629 365.02707 -33.300781 365.164062 C-17.442989 365.661739 -1.860464 362.25405 13 357 C14.999091 356.330611 16.998781 355.662999 19 355 C19.33 355.99 19.66 356.98 20 358 C-1.460527 389.911754 -26.850765 411.798856 -64.902344 420.421875 C-73.657273 422.055834 -82.103979 422.119135 -91 422.0625 C-92.360675 422.057475 -93.721353 422.052914 -95.082031 422.048828 C-98.388067 422.037105 -101.69401 422.020694 -105 422 C-92.416342 427.440052 -92.416342 427.440052 -86.25 428.75 C-85.244531 428.971719 -84.239063 429.193438 -83.203125 429.421875 C-76.219046 430.682416 -69.579589 431.137447 -62.5 431.0625 C-61.677578 431.057988 -60.855156 431.053477 -60.007812 431.048828 C-58.005176 431.037185 -56.002578 431.019256 -54 431 C-54 431.99 -54 432.98 -54 434 C-73.597032 449.351575 -96.144251 459.389457 -120.0625 465.875 C-120.811768 466.078591 -121.561035 466.282183 -122.333008 466.491943 C-127.852923 467.90252 -133.324265 468.563576 -139 469 C-169.532332 448.152258 -200.19475 421.999244 -208 384 C-207.394141 383.5875 -206.788281 383.175 -206.164062 382.75 C-197.912354 377.062669 -190.011287 371.186023 -183 364 C-182.604902 363.597813 -182.604902 363.597813 -180.605469 361.5625 C-174.306066 354.886558 -169.468035 348.042463 -165 340 C-164.38125 338.88625 -163.7625 337.7725 -163.125 336.625 C-154.361061 320.003736 -151.532457 303.33448 -149.550781 284.855469 C-147.303896 265.169457 -139.685457 248.362086 -124.242676 235.541016 C-119.950443 232.187744 -115.495259 229.073204 -111 226 C-110.434907 225.612476 -109.869814 225.224951 -109.287598 224.825684 C-108.745386 224.45395 -108.203174 224.082217 -107.644531 223.699219 C-84.45866 207.799528 -62.248252 189.332624 -45 167 C-44.226562 166.043516 -43.453125 165.087031 -42.65625 164.101562 C-31.601623 150.213312 -22.424682 135.112413 -15 119 C-14.468906 117.865625 -13.937813 116.73125 -13.390625 115.5625 C2.86193 79.371243 6.553264 39.810918 -1 1 C-0.67 0.67 -0.34 0.34 0 0 Z " fill="#F2EDE1" transform="translate(879,94)"/><path d="M0 0 C7.243849 0.638381 13.950882 2.540105 20.9375 4.5 C77.821663 20.101906 135.034469 28.450161 194 29 C194 29.99 194 30.98 194 32 C193.637773 32.29584 193.637773 32.29584 191.804688 33.792969 C190.837891 34.583164 189.871094 35.373359 188.875 36.1875 C188.399336 36.576152 188.399336 36.576152 185.992188 38.542969 C182.982505 41.014366 179.988797 43.503423 177 46 C124.058104 44.921984 72.301751 36.39597 21.0625 23.3125 C20.353234 23.132223 19.643967 22.951945 18.913208 22.766205 C9.119227 20.261205 -0.447587 17.312911 -10 14 C-10.33 13.34 -10.66 12.68 -11 12 C-3.701595 3.553531 -3.701595 3.553531 0 0 Z " fill="#F2EDE1" transform="translate(628,895)"/><path d="M0 0 C0.99 1.65 1.98 3.3 3 5 C-2.291956 18.22989 -24.493733 27.921368 -36.335938 35.347656 C-56.132151 47.792578 -75.538334 61.075096 -92.769531 76.957031 C-94.825741 78.84039 -96.930782 80.640826 -99.0625 82.4375 C-121.421845 102.113724 -132.984464 128.438431 -139 157 C-143.854891 158.831163 -148.445292 159.57976 -153.5625 160.125 C-154.304355 160.211367 -155.046211 160.297734 -155.810547 160.386719 C-159.559782 160.807381 -163.220548 161.104777 -167 161 C-174.416908 144.188343 -171.351329 117.157079 -166 100 C-165.879312 99.60885 -165.879312 99.60885 -165.268555 97.629395 C-159.186762 78.531036 -149.311643 61.975599 -136 47 C-137.32 45.68 -138.64 44.36 -140 43 C-141 38 -141 38 -138 33 C-128 29 -128 29 -123 31 C-115.177349 33.60755 -104.607518 29.575909 -97 27 C-91 28 -91 28 -89 30 C-77.282253 28.739092 -66.212208 25.515451 -55 22 C-54.652678 21.89196 -54.652678 21.89196 -52.89502 21.345215 C-38.204476 16.647375 -23.17288 9.350138 -10.445312 0.664062 C-5.937683 -2.40343 -5.383166 -2.153266 0 0 Z " fill="#F2EDE1" transform="translate(738,943)"/><path d="M0 0 C0.99 1.65 1.98 3.3 3 5 C1.54591 9.503525 -0.97965 12.634288 -4.0625 16.125 C-5.065819 17.285841 -6.068414 18.447308 -7.070312 19.609375 C-7.568213 20.183652 -8.066113 20.75793 -8.579102 21.349609 C-12.144201 25.490516 -15.558564 29.75651 -19 34 C-19.922914 35.117405 -20.846105 36.234581 -21.769531 37.351562 C-34.335072 52.659168 -44.893825 68.811592 -54.083008 86.352051 C-55 88 -55 88 -56 89 C-58.686937 89.338512 -61.374403 89.670936 -64.0625 90 C-64.814668 90.095391 -65.566836 90.190781 -66.341797 90.289062 C-70.934213 90.845719 -75.374214 91.09829 -80 91 C-80.33 90.67 -80.66 90.34 -81 90 C-80.509628 71.05379 -70.617411 52.66264 -58 39 C-57.745732 38.721885 -57.745732 38.721885 -56.458984 37.314453 C-46.355326 26.379706 -15.544587 -6.217835 0 0 Z " fill="#F2EDE1" transform="translate(706,1006)"/></g><path d="M 927.527 732.048 C 938.677 773.659 827.491 839.604 679.188 879.342 C 530.884 919.080 401.622 917.562 390.473 875.952" fill="none" stroke="#F2EDE1" stroke-width="10.0" stroke-linecap="round"/><g><path d="M0 0 C4.268794 3.836699 6.704363 7.667131 9.1875 12.8125 C9.529746 13.486035 9.871992 14.15957 10.224609 14.853516 C16.045973 26.665798 17.263591 40.822996 13.4375 53.5 C8.759864 65.382837 0.116524 74.055766 -10 81.5 C-19.35337 88.400027 -27.859902 95.967407 -30 108 C-30.413507 116.26053 -30.245414 124.000711 -28 132 C-32.757305 132 -35.584136 128.144568 -39 125 C-47.056771 116.870317 -51.251156 107.36713 -51.375 95.8125 C-51.140577 81.81609 -45.428218 70.36486 -35.75 60.375 C-31.557657 56.368665 -27.078552 52.751128 -22.570312 49.109375 C-11.94087 40.386124 -3.464641 28.920395 -1.743164 14.909668 C-1.318484 10.277815 -1.11799 5.648818 -1 1 C-0.67 0.67 -0.34 0.34 0 0 Z " fill="#E8843C" transform="translate(641,119)"/><path d="M0 0 C0.33 0.165 0.33 0.165 2 1 C4.856465 9.569394 3.731544 20.849522 0 29 C-8.016862 43.697579 -19.084781 48.840468 -34.434326 53.686279 C-45.097393 57.169315 -51.5769 62.507914 -56.8125 72.4375 C-57.008438 72.860312 -57.008438 72.860312 -58 75 C-58.99 75 -59.98 75 -61 75 C-64.629279 65.667568 -64.945734 59.021546 -61.261719 49.675781 C-54.700803 35.761766 -42.382397 30.102318 -28.853271 24.392822 C-16.285653 19.057967 -6.928809 12.130746 0 0 Z " fill="#E8843C" transform="translate(683,176)"/></g></svg>
