<svg xmlns="http://www.w3.org/2000/svg" width="4518" height="715" viewBox="0 0 4518 715"><g fill="#F2EDE1"><g transform="translate(-79,696) scale(1,-1)"><path transform="translate(0,0)" d="M79 0V543H189V310H179Q179 393 201.0 448.5Q223 504 266.5 532.0Q310 560 375 560H381Q478 560 528.0 497.5Q578 435 578 311V0H439V323Q439 373 410.5 404.0Q382 435 332 435Q281 435 249.5 403.5Q218 372 218 319V0Z"/><path transform="translate(660,0)" d="M320 -19Q249 -19 197.5 5.0Q146 29 111.5 69.0Q77 109 60.0 159.0Q43 209 43 261V280Q43 335 60.5 385.5Q78 436 113.0 475.5Q148 515 199.5 538.5Q251 562 319 562Q390 562 446.0 534.5Q502 507 535.5 458.0Q569 409 573 344H438Q433 386 402.5 414.0Q372 442 319 442Q273 442 242.5 420.0Q212 398 197.0 359.5Q182 321 182 271Q182 223 196.5 184.0Q211 145 241.5 123.0Q272 101 320 101Q356 101 382.0 114.0Q408 127 423.5 150.0Q439 173 443 202H578Q574 136 539.5 86.5Q505 37 448.5 9.0Q392 -19 320 -19Z"/><path transform="translate(1282,0)" d="M408 0V161H385V340Q385 387 362.0 410.0Q339 433 291 433Q266 433 231.0 432.0Q196 431 160.5 429.5Q125 428 97 426V544Q120 546 149.0 548.0Q178 550 208.5 550.5Q239 551 266 551Q350 551 405.5 529.0Q461 507 489.5 460.0Q518 413 518 337V0ZM233 -14Q174 -14 129.5 7.0Q85 28 60.5 67.0Q36 106 36 161Q36 221 65.5 259.0Q95 297 148.5 316.0Q202 335 274 335H400V252H272Q224 252 198.5 228.5Q173 205 173 168Q173 131 198.5 108.0Q224 85 272 85Q301 85 325.5 95.5Q350 106 366.5 131.5Q383 157 385 201L419 162Q414 105 391.5 66.0Q369 27 329.5 6.5Q290 -14 233 -14Z"/><path transform="translate(1882,0)" d="M79 0V543H189V313H186Q186 430 236.0 490.0Q286 550 383 550H403V429H365Q295 429 256.5 391.5Q218 354 218 283V0Z"/><path transform="translate(2311,0)" d="M79 0V543H189V310H179Q179 393 201.0 448.5Q223 504 266.5 532.0Q310 560 375 560H381Q478 560 528.0 497.5Q578 435 578 311V0H439V323Q439 373 410.5 404.0Q382 435 332 435Q281 435 249.5 403.5Q218 372 218 319V0Z"/><path transform="translate(2971,0)" d="M408 0V161H385V340Q385 387 362.0 410.0Q339 433 291 433Q266 433 231.0 432.0Q196 431 160.5 429.5Q125 428 97 426V544Q120 546 149.0 548.0Q178 550 208.5 550.5Q239 551 266 551Q350 551 405.5 529.0Q461 507 489.5 460.0Q518 413 518 337V0ZM233 -14Q174 -14 129.5 7.0Q85 28 60.5 67.0Q36 106 36 161Q36 221 65.5 259.0Q95 297 148.5 316.0Q202 335 274 335H400V252H272Q224 252 198.5 228.5Q173 205 173 168Q173 131 198.5 108.0Q224 85 272 85Q301 85 325.5 95.5Q350 106 366.5 131.5Q383 157 385 201L419 162Q414 105 391.5 66.0Q369 27 329.5 6.5Q290 -14 233 -14Z"/><path transform="translate(3571,0)" d="M315 -7Q240 -7 191.5 12.5Q143 32 119.0 78.5Q95 125 95 204L96 696H226L225 195Q225 155 246.5 133.5Q268 112 308 112H393V-7ZM9 441V543H393V441Z"/><path transform="translate(4014,0)" d="M322 -19Q252 -19 199.5 5.0Q147 29 112.5 69.5Q78 110 60.5 160.0Q43 210 43 262V281Q43 335 60.5 385.5Q78 436 112.5 475.5Q147 515 198.0 538.5Q249 562 316 562Q404 562 463.5 523.5Q523 485 553.0 422.5Q583 360 583 288V238H102V323H496L453 281Q453 333 438.0 370.0Q423 407 392.5 427.0Q362 447 316 447Q270 447 238.0 426.0Q206 405 189.5 365.5Q173 326 173 271Q173 220 189.0 180.5Q205 141 238.0 118.5Q271 96 322 96Q373 96 405.0 116.5Q437 137 446 167H574Q562 111 528.0 69.0Q494 27 441.5 4.0Q389 -19 322 -19Z"/></g></g></svg>
